<?xml version="1.0" encoding="UTF-8"?>
<svg width="1400" height="1400" version="1.1" viewBox="0 0 370.417 370.417" xmlns="http://www.w3.org/2000/svg" xmlns:cc="http://creativecommons.org/ns#" xmlns:dc="http://purl.org/dc/elements/1.1/" xmlns:rdf="http://www.w3.org/1999/02/22-rdf-syntax-ns#" xmlns:xlink="http://www.w3.org/1999/xlink">
 <defs>
  <linearGradient id="a">
   <stop stop-color="#fff6d5" offset="0"/>
   <stop stop-color="#fff6d5" stop-opacity="0" offset="1"/>
  </linearGradient>
  <linearGradient id="b" x1="34.3958" x2="34.3958" y1="-28.4375" y2="-36.375" gradientTransform="matrix(2.20454 0 0 .999999 -35.0572 73.4165)" gradientUnits="userSpaceOnUse" xlink:href="#a"/>
  <linearGradient id="c" x1="34.3958" x2="34.3958" y1="-28.4375" y2="-36.375" gradientTransform="matrix(0 1.04545 -.999999 0 244.083 1.32312)" gradientUnits="userSpaceOnUse" xlink:href="#a"/>
  <linearGradient id="d" x1="34.3958" x2="34.3958" y1="-28.4375" y2="-36.375" gradientTransform="matrix(0 .613637 -.999999 0 297 119.724)" gradientUnits="userSpaceOnUse" xlink:href="#a"/>
  <linearGradient id="e" x1="34.3958" x2="34.3958" y1="-28.4375" y2="-36.375" gradientTransform="matrix(.613637 0 0 .999999 249.369 176.604)" gradientUnits="userSpaceOnUse" xlink:href="#a"/>
 </defs>
 <metadata>
  <rdf:RDF>
   <cc:Work rdf:about="">
    <dc:format>image/svg+xml</dc:format>
    <dc:type rdf:resource="http://purl.org/dc/dcmitype/StillImage"/>
    <dc:title/>
   </cc:Work>
  </rdf:RDF>
 </metadata>
 <g stroke-width=".264583">
  <path d="m285.75 31.7502-18.5208 18.5208v103.187h18.5208z" fill="url(#c)"/>
  <path d="m267.229 134.938v18.5208h52.9166l18.5208-16.463v-2.05776z" fill="url(#e)"/>
  <path d="m338.005 137.583-17.8594 15.875v58.2083h18.5208v-74.0832z" fill="url(#d)"/>
  <path d="m26.4583 31.75v18.5208h240.771l18.5208-18.5208h-256.646z" fill="url(#b)"/>
 </g>
 <rect x="261.938" y="158.75" width="52.9167" height="182.562" ry="0" fill="#fff6d5"/>
 <rect x="29.1042" y="55.5625" width="232.833" height="285.75" fill="#fff6d5"/>
 <rect x="29.1042" y="341.313" width="285.75" height="5.29167" fill="#333" stroke="#000" stroke-linejoin="round" stroke-width=".529167"/>
 <g fill="#a05a2c" stroke="#502d16" stroke-width=".529167">
  <path d="m42.307 285.752c-1.45035 0.0145-2.41436 1.20844-2.61948 2.64428l-1.32292 9.26042c-8e-6 0.73062 2.96144 1.32292 6.61458 1.32292s6.61459-0.5923 6.61458-1.32292l-1.32292-9.26042c-0.205147-1.43604-1.16893-2.63035-2.61948-2.6448-2.58367 0-2.72127 5.3e-4 -5.34438 5.3e-4z" stroke-linejoin="round"/>
  <g transform="translate(0,73.4167)">
   <path d="m38.3646 209.026s2.66815-0.73588 6.61458-0.73588 6.61458 0.73588 6.61458 0.73588l-1.32291 1.32289s-2.2745-0.41296-5.29167-0.41296-5.29167 0.41298-5.29167 0.41298z" stroke-linejoin="round"/>
   <path d="m43.118 209.987 0.53824 2.34797z"/>
   <path d="m40.2016 210.268 1.64827 2.11238z"/>
   <path d="m46.8403 209.987-0.53824 2.34797z"/>
   <path d="m49.7568 210.268-1.64827 2.11238z"/>
  </g>
  <path d="m63.4736 285.752c-1.45035 0.0145-2.41436 1.20844-2.61948 2.64428l-1.32292 9.26042c-8e-6 0.73062 2.96144 1.32292 6.61458 1.32292s6.61459-0.5923 6.61458-1.32292l-1.32292-9.26042c-0.205147-1.43604-1.16893-2.63035-2.61948-2.6448-2.58367 0-2.72127 5.3e-4 -5.34438 5.3e-4z" stroke-linejoin="round"/>
  <g transform="translate(0,73.4167)">
   <path d="m59.5313 209.026s2.66815-0.73588 6.61458-0.73588 6.61458 0.73588 6.61458 0.73588l-1.32291 1.32289s-2.2745-0.41296-5.29167-0.41296-5.29167 0.41298-5.29167 0.41298z" stroke-linejoin="round"/>
   <path d="m64.2847 209.987 0.53824 2.34797z"/>
   <path d="m61.3683 210.268 1.64827 2.11238z"/>
   <path d="m68.007 209.987-0.53824 2.34797z"/>
   <path d="m70.9234 210.268-1.64827 2.11238z"/>
  </g>
  <path d="m84.6651 301.599c-0.01445-1.45035-1.20844-2.41436-2.64428-2.61948l-9.26042-1.32291c-0.730626-1e-5 -1.32292 2.96144-1.32292 6.61458s0.592291 6.61459 1.32292 6.61458l9.26042-1.32291c1.43604-0.20515 2.63035-1.16894 2.6448-2.61948 0-2.58367-5.29e-4 -2.72127-5.29e-4 -5.34438z" stroke-linejoin="round"/>
  <g transform="translate(0,73.4167)">
   <path d="m87.9739 224.24s0.73588 2.66815 0.73588 6.61458-0.73588 6.61458-0.73588 6.61458l-1.32289-1.32291s0.41296-2.2745 0.41296-5.29167-0.41298-5.29167-0.41298-5.29167z" stroke-linejoin="round"/>
   <path d="m87.0131 228.993-2.34797 0.53824z"/>
   <path d="m86.7318 226.077-2.11238 1.64827z"/>
   <path d="m87.0131 232.715-2.34797-0.53824z"/>
   <path d="m86.7318 235.632-2.11238-1.64827z"/>
  </g>
  <path d="m47.6514 322.79c1.45035-0.0144 2.41436-1.20844 2.61948-2.64428l1.32292-9.26042c8e-6 -0.73062-2.96144-1.32292-6.61458-1.32292s-6.61459 0.5923-6.61458 1.32292l1.32292 9.26042c0.205147 1.43604 1.16893 2.63035 2.61948 2.6448 2.58367 0 2.72127-5.3e-4 5.34438-5.3e-4z" stroke-linejoin="round"/>
  <g transform="translate(0,73.4167)">
   <path d="m51.5938 252.682s-2.66815 0.73588-6.61458 0.73588-6.61458-0.73588-6.61458-0.73588l1.32291-1.32289s2.2745 0.41296 5.29167 0.41296 5.29167-0.41298 5.29167-0.41298z" stroke-linejoin="round"/>
   <path d="m46.8403 251.721-0.53824-2.34797z"/>
   <path d="m49.7568 251.44-1.64827-2.11238z"/>
   <path d="m43.118 251.721 0.53824-2.34797z"/>
   <path d="m40.2016 251.44 1.64827-2.11238z"/>
  </g>
  <path d="m68.818 322.79c1.45035-0.0144 2.41436-1.20844 2.61948-2.64428l1.32292-9.26042c8e-6 -0.73062-2.96144-1.32292-6.61458-1.32292s-6.61459 0.5923-6.61458 1.32292l1.32292 9.26042c0.205147 1.43604 1.16893 2.63035 2.61948 2.6448 2.58367 0 2.72127-5.3e-4 5.34438-5.3e-4z" stroke-linejoin="round"/>
  <g transform="translate(0,73.4167)">
   <path d="m72.7604 252.682s-2.66815 0.73588-6.61458 0.73588-6.61458-0.73588-6.61458-0.73588l1.32291-1.32289s2.2745 0.41296 5.29167 0.41296 5.29167-0.41298 5.29167-0.41298z" stroke-linejoin="round"/>
   <path d="m68.007 251.721-0.53824-2.34797z"/>
   <path d="m70.9234 251.44-1.64827-2.11238z"/>
   <path d="m64.2847 251.721 0.53824-2.34797z"/>
   <path d="m61.3683 251.44 1.64827-2.11238z"/>
  </g>
 </g>
 <rect x="29.1042" y="288.396" width="52.9167" height="31.75" fill="#f4e3d7" stroke="#502d16" stroke-linejoin="round" stroke-width=".529167"/>
 <g fill="#a05a2c" stroke="#502d16" stroke-width=".529167">
  <path d="m42.307 219.606c-1.45035 0.0144-2.41436 1.20844-2.61948 2.64428l-1.32292 9.26042c-8e-6 0.73062 2.96144 1.32292 6.61458 1.32292s6.61459-0.5923 6.61458-1.32292l-1.32292-9.26042c-0.205147-1.43604-1.16893-2.63035-2.61948-2.6448-2.58367 0-2.72127 5.3e-4 -5.34438 5.3e-4z" stroke-linejoin="round"/>
  <g transform="translate(0,73.4167)">
   <path d="m38.3646 142.88s2.66815-0.73588 6.61458-0.73588 6.61458 0.73588 6.61458 0.73588l-1.32291 1.32289s-2.2745-0.41296-5.29167-0.41296-5.29167 0.41298-5.29167 0.41298z" stroke-linejoin="round"/>
   <path d="m43.118 143.841 0.53824 2.34797z"/>
   <path d="m40.2016 144.122 1.64827 2.11238z"/>
   <path d="m46.8403 143.841-0.53824 2.34797z"/>
   <path d="m49.7568 144.122-1.64827 2.11238z"/>
  </g>
  <path d="m63.4736 219.606c-1.45035 0.0144-2.41436 1.20844-2.61948 2.64428l-1.32292 9.26042c-8e-6 0.73062 2.96144 1.32292 6.61458 1.32292s6.61459-0.5923 6.61458-1.32292l-1.32292-9.26042c-0.205147-1.43604-1.16893-2.63035-2.61948-2.6448-2.58367 0-2.72127 5.3e-4 -5.34438 5.3e-4z" stroke-linejoin="round"/>
  <g transform="translate(0,73.4167)">
   <path d="m59.5313 142.88s2.66815-0.73588 6.61458-0.73588 6.61458 0.73588 6.61458 0.73588l-1.32291 1.32289s-2.2745-0.41296-5.29167-0.41296-5.29167 0.41298-5.29167 0.41298z" stroke-linejoin="round"/>
   <path d="m64.2847 143.841 0.53824 2.34797z"/>
   <path d="m61.3683 144.122 1.64827 2.11238z"/>
   <path d="m68.007 143.841-0.53824 2.34797z"/>
   <path d="m70.9234 144.122-1.64827 2.11238z"/>
  </g>
  <path d="m84.6651 235.453c-0.01445-1.45035-1.20844-2.41436-2.64428-2.61948l-9.26042-1.32291c-0.730626-1e-5 -1.32292 2.96144-1.32292 6.61458s0.592291 6.61459 1.32292 6.61458l9.26042-1.32291c1.43604-0.20515 2.63035-1.16894 2.6448-2.61948 0-2.58367-5.29e-4 -2.72127-5.29e-4 -5.34438z" stroke-linejoin="round"/>
  <g transform="translate(0,73.4167)">
   <path d="m87.9739 158.094s0.73588 2.66815 0.73588 6.61458-0.73588 6.61458-0.73588 6.61458l-1.32289-1.32291s0.41296-2.2745 0.41296-5.29167-0.41298-5.29167-0.41298-5.29167z" stroke-linejoin="round"/>
   <path d="m87.0131 162.847-2.34797 0.53824z"/>
   <path d="m86.7318 159.931-2.11238 1.64827z"/>
   <path d="m87.0131 166.569-2.34797-0.53824z"/>
   <path d="m86.7318 169.486-2.11238-1.64827z"/>
  </g>
  <path d="m47.6514 256.645c1.45035-0.0144 2.41436-1.20844 2.61948-2.64428l1.32292-9.26042c8e-6 -0.73062-2.96144-1.32292-6.61458-1.32292s-6.61459 0.5923-6.61458 1.32292l1.32292 9.26042c0.205147 1.43604 1.16893 2.63035 2.61948 2.6448 2.58367 0 2.72127-5.3e-4 5.34438-5.3e-4z" stroke-linejoin="round"/>
  <g transform="translate(0,73.4167)">
   <path d="m51.5938 186.536s-2.66815 0.73588-6.61458 0.73588-6.61458-0.73588-6.61458-0.73588l1.32291-1.32289s2.2745 0.41296 5.29167 0.41296 5.29167-0.41298 5.29167-0.41298z" stroke-linejoin="round"/>
   <path d="m46.8403 185.576-0.53824-2.34797z"/>
   <path d="m49.7568 185.294-1.64827-2.11238z"/>
   <path d="m43.118 185.576 0.53824-2.34797z"/>
   <path d="m40.2016 185.294 1.64827-2.11238z"/>
  </g>
  <path d="m68.818 256.645c1.45035-0.0144 2.41436-1.20844 2.61948-2.64428l1.32292-9.26042c8e-6 -0.73062-2.96144-1.32292-6.61458-1.32292s-6.61459 0.5923-6.61458 1.32292l1.32292 9.26042c0.205147 1.43604 1.16893 2.63035 2.61948 2.6448 2.58367 0 2.72127-5.3e-4 5.34438-5.3e-4z" stroke-linejoin="round"/>
  <g transform="translate(0,73.4167)">
   <path d="m72.7604 186.536s-2.66815 0.73588-6.61458 0.73588-6.61458-0.73588-6.61458-0.73588l1.32291-1.32289s2.2745 0.41296 5.29167 0.41296 5.29167-0.41298 5.29167-0.41298z" stroke-linejoin="round"/>
   <path d="m68.007 185.576-0.53824-2.34797z"/>
   <path d="m70.9234 185.294-1.64827-2.11238z"/>
   <path d="m64.2847 185.576 0.53824-2.34797z"/>
   <path d="m61.3683 185.294 1.64827-2.11238z"/>
  </g>
 </g>
 <g stroke-linejoin="round" stroke-width=".529167">
  <rect x="29.1042" y="222.25" width="52.9167" height="31.75" fill="#f4e3d7" stroke="#502d16"/>
  <rect x="23.8125" y="55.5625" width="5.29167" height="285.75" fill="#333" stroke="#000"/>
  <rect x="23.8125" y="224.896" width="5.29167" height="26.4583" fill="#fff" stroke="#917c6f"/>
  <rect x="25.1354" y="224.896" width="2.64583" height="26.4583" fill="#5fbcd3" stroke="#216778"/>
  <rect x="26.4583" y="227.542" width="1.9251e-12" height="21.1667" fill="#5fbcd3" stroke="#216778"/>
  <rect x="23.8125" y="291.042" width="5.29167" height="26.4583" fill="#fff" stroke="#917c6f"/>
  <rect x="25.1354" y="291.042" width="2.64583" height="26.4583" fill="#5fbcd3" stroke="#216778"/>
  <rect x="26.4583" y="293.688" width="1.9251e-12" height="21.1667" fill="#5fbcd3" stroke="#216778"/>
  <rect x="23.8125" y="145.521" width="5.29167" height="52.9166" fill="#fff" stroke="#917c6f"/>
 </g>
 <g stroke="#373e48" stroke-linejoin="round" stroke-width=".529167">
  <rect x="25.1354" y="145.521" width="2.64583" height="52.9167" fill="#6f7c91"/>
  <path d="m26.4583 171.979v26.4583h26.4583a26.4583 26.4583 0 0 0-26.4583-26.4583z" fill="none"/>
  <path d="m52.9167 145.521h-26.4583v26.4583a26.4583 26.4583 0 0 0 26.4583-26.4583z" fill="none"/>
 </g>
 <g fill="#c87137" stroke="#502d16" stroke-width=".529167">
  <path d="m142.873 92.5779c-0.0144-1.45035-1.20844-2.41436-2.64428-2.61948l-9.26042-1.32292c-0.73062-8e-6 -1.32292 2.96144-1.32292 6.61458s0.5923 6.61459 1.32292 6.61458l9.26042-1.32292c1.43604-0.20515 2.63035-1.16893 2.6448-2.61948 0-2.58367-5.3e-4 -2.72127-5.3e-4 -5.34438z" stroke-linejoin="round"/>
  <g transform="translate(0,73.4167)">
   <path d="m146.182 15.2188s0.73588 2.66815 0.73588 6.61458-0.73588 6.61458-0.73588 6.61458l-1.32289-1.32291s0.41296-2.2745 0.41296-5.29167-0.41298-5.29167-0.41298-5.29167z" stroke-linejoin="round"/>
   <path d="m145.221 19.9722-2.34797 0.53824z"/>
   <path d="m144.94 17.0558-2.11238 1.64827z"/>
   <path d="m145.221 23.6946-2.34797-0.53824z"/>
   <path d="m144.94 26.611-2.11238-1.64827z"/>
  </g>
  <path d="m142.873 66.1196c-0.0144-1.45035-1.20844-2.41436-2.64428-2.61948l-9.26042-1.32292c-0.73062-8e-6 -1.32292 2.96144-1.32292 6.61458s0.5923 6.61459 1.32292 6.61458l9.26042-1.32292c1.43604-0.205147 2.63035-1.16893 2.6448-2.61948 0-2.58367-5.3e-4 -2.72127-5.3e-4 -5.34438z" stroke-linejoin="round"/>
  <g transform="translate(0,73.4167)">
   <path d="m146.182-11.2395s0.73588 2.66815 0.73588 6.61458-0.73588 6.61458-0.73588 6.61458l-1.32289-1.32291s0.41296-2.2745 0.41296-5.29167-0.41298-5.29167-0.41298-5.29167z" stroke-linejoin="round"/>
   <path d="m145.221-6.48611-2.34797 0.53824z"/>
   <path d="m144.94-9.40253-2.11238 1.64827z"/>
   <path d="m145.221-2.76379-2.34797-0.53824z"/>
   <path d="m144.94 0.15263-2.11238-1.64827z"/>
  </g>
  <path d="m105.833 55.5625v44.9792a7.9375 7.9375 0 0 1-7.9375 7.9375h-44.9792v26.4583h52.9167a26.4583 26.4583 0 0 0 26.4583-26.4583v-52.9167z" stroke-linejoin="round"/>
 </g>
 <g fill="#333" stroke="#000" stroke-linejoin="round" stroke-width=".529167">
  <rect x="23.8125" y="50.2709" width="5.29167" height="5.29167"/>
  <rect x="23.8125" y="341.313" width="5.29167" height="5.29167"/>
  <path d="m28.8236 34.0775c-1.16924 7.93e-4 -2.13302 0.898763-2.53369 1.88929-0.400672 0.990525-1.35253 1.3795-2.32027 1.38079-0.05272-6.4e-5 -0.10499-3e-3 -0.157096-0.0062v12.9294h5.29167v-16.1737c-0.09286-0.01-0.185909-0.01958-0.280604-0.01963z"/>
  <rect x="29.1042" y="50.2709" width="232.833" height="5.29167"/>
 </g>
 <g stroke-linejoin="round" stroke-width=".529167">
  <rect x="52.9167" y="134.938" width="52.9167" height="13.2292" fill="#a05a2c" stroke="#502d16"/>
  <rect transform="rotate(90)" x="50.2709" y="-238.125" width="5.29167" height="52.9166" fill="#fff" stroke="#917c6f"/>
  <rect transform="rotate(90)" x="51.5938" y="-238.125" width="2.64583" height="52.9167" fill="#6f7c91" stroke="#373e48"/>
  <rect x="261.938" y="50.2709" width="5.29167" height="5.29167" fill="#333" stroke="#000"/>
  <rect x="261.938" y="55.5625" width="5.29167" height="97.8958" fill="#333" stroke="#000"/>
 </g>
 <g fill="#a05a2c" stroke="#502d16" stroke-width=".529167">
  <path d="m137.557 285.752c-1.45035 0.0145-2.41436 1.20844-2.61948 2.64428l-1.32292 9.26042c-1e-5 0.73062 2.96144 1.32292 6.61458 1.32292s6.61459-0.5923 6.61459-1.32292l-1.32292-9.26042c-0.20515-1.43604-1.16893-2.63035-2.61948-2.6448-2.58367 0-2.72126 5.3e-4 -5.34437 5.3e-4z" stroke-linejoin="round"/>
  <g transform="translate(0,73.4167)">
   <path d="m133.615 209.026s2.66815-0.73588 6.61458-0.73588c3.94644 0 6.61459 0.73588 6.61459 0.73588l-1.32292 1.32289s-2.27449-0.41296-5.29166-0.41296c-3.01718 0-5.29167 0.41298-5.29167 0.41298z" stroke-linejoin="round"/>
   <path d="m138.368 209.987 0.53825 2.34797z"/>
   <path d="m135.452 210.268 1.64827 2.11238z"/>
   <path d="m142.09 209.987-0.53824 2.34797z"/>
   <path d="m145.007 210.268-1.64827 2.11238z"/>
  </g>
  <path d="m158.748 301.599c-0.0144-1.45035-1.20844-2.41436-2.64428-2.61948l-9.26042-1.32291c-0.73062-1e-5 -1.32292 2.96144-1.32292 6.61458s0.5923 6.61459 1.32292 6.61458l9.26042-1.32291c1.43604-0.20515 2.63035-1.16894 2.6448-2.61948 0-2.58367-5.3e-4 -2.72127-5.3e-4 -5.34438z" stroke-linejoin="round"/>
  <g transform="translate(0,73.4167)">
   <path d="m162.057 224.24s0.73588 2.66815 0.73588 6.61458-0.73588 6.61458-0.73588 6.61458l-1.32289-1.32291s0.41296-2.2745 0.41296-5.29167-0.41298-5.29167-0.41298-5.29167z" stroke-linejoin="round"/>
   <path d="m161.096 228.993-2.34797 0.53824z"/>
   <path d="m160.815 226.077-2.11238 1.64827z"/>
   <path d="m161.096 232.715-2.34797-0.53824z"/>
   <path d="m160.815 235.632-2.11238-1.64827z"/>
  </g>
  <path d="m142.901 322.79c1.45035-0.0144 2.41436-1.20844 2.61948-2.64428l1.32291-9.26042c1e-5 -0.73062-2.96144-1.32292-6.61458-1.32292s-6.61459 0.5923-6.61458 1.32292l1.32291 9.26042c0.20515 1.43604 1.16894 2.63035 2.61948 2.6448 2.58367 0 2.72127-5.3e-4 5.34438-5.3e-4z" stroke-linejoin="round"/>
  <g transform="translate(0,73.4167)">
   <path d="m146.844 252.682s-2.66815 0.73588-6.61458 0.73588-6.61458-0.73588-6.61458-0.73588l1.32291-1.32289s2.2745 0.41296 5.29167 0.41296 5.29167-0.41298 5.29167-0.41298z" stroke-linejoin="round"/>
   <path d="m142.09 251.721-0.53824-2.34797z"/>
   <path d="m145.007 251.44-1.64827-2.11238z"/>
   <path d="m138.368 251.721 0.53824-2.34797z"/>
   <path d="m135.452 251.44 1.64827-2.11238z"/>
  </g>
  <path d="m121.71 306.943c0.0144 1.45035 1.20844 2.41436 2.64428 2.61948l9.26042 1.32291c0.73062 1e-5 1.32292-2.96144 1.32292-6.61458s-0.5923-6.61459-1.32292-6.61458l-9.26042 1.32291c-1.43604 0.20515-2.63035 1.16894-2.6448 2.61948 0 2.58367 5.3e-4 2.72127 5.3e-4 5.34438z" stroke-linejoin="round"/>
  <g transform="translate(0,73.4167)">
   <path d="m118.401 237.469s-0.73588-2.66815-0.73588-6.61458 0.73588-6.61458 0.73588-6.61458l1.32289 1.32291s-0.41296 2.2745-0.41296 5.29167 0.41298 5.29167 0.41298 5.29167z" stroke-linejoin="round"/>
   <path d="m119.362 232.715 2.34797-0.53824z"/>
   <path d="m119.643 235.632 2.11238-1.64827z"/>
   <path d="m119.362 228.993 2.34797 0.53824z"/>
   <path d="m119.643 226.077 2.11238 1.64827z"/>
  </g>
 </g>
 <rect x="124.354" y="288.396" width="31.75" height="31.75" fill="#f4e3d7" stroke="#502d16" stroke-linejoin="round" stroke-width=".529167"/>
 <g fill="#a05a2c" stroke="#502d16" stroke-width=".529167">
  <path d="m137.557 219.606c-1.45035 0.0144-2.41436 1.20844-2.61948 2.64428l-1.32292 9.26042c-1e-5 0.73062 2.96145 1.32292 6.61459 1.32292 3.65313 0 6.61459-0.5923 6.61458-1.32292l-1.32292-9.26042c-0.20515-1.43604-1.16893-2.63035-2.61948-2.6448-2.58367 0-2.72126 5.3e-4 -5.34437 5.3e-4z" stroke-linejoin="round"/>
  <g transform="translate(0,73.4167)">
   <path d="m133.615 142.88s2.66815-0.73588 6.61458-0.73588 6.61458 0.73588 6.61458 0.73588l-1.32291 1.32289s-2.2745-0.41296-5.29167-0.41296-5.29167 0.41298-5.29167 0.41298z" stroke-linejoin="round"/>
   <path d="m138.368 143.841 0.53824 2.34797z"/>
   <path d="m135.452 144.122 1.64827 2.11238z"/>
   <path d="m142.09 143.841-0.53824 2.34797z"/>
   <path d="m145.007 144.122-1.64827 2.11238z"/>
  </g>
  <path d="m158.748 235.453c-0.0144-1.45035-1.20844-2.41436-2.64428-2.61948l-9.26042-1.32291c-0.73062-1e-5 -1.32292 2.96144-1.32292 6.61458s0.5923 6.61459 1.32292 6.61458l9.26042-1.32291c1.43604-0.20515 2.63035-1.16894 2.6448-2.61948 0-2.58367-5.3e-4 -2.72127-5.3e-4 -5.34438z" stroke-linejoin="round"/>
  <g transform="translate(0,73.4167)">
   <path d="m162.057 158.094s0.73588 2.66815 0.73588 6.61458-0.73588 6.61458-0.73588 6.61458l-1.32289-1.32291s0.41296-2.2745 0.41296-5.29167-0.41298-5.29167-0.41298-5.29167z" stroke-linejoin="round"/>
   <path d="m161.096 162.847-2.34797 0.53824z"/>
   <path d="m160.815 159.931-2.11238 1.64827z"/>
   <path d="m161.096 166.57-2.34797-0.53824z"/>
   <path d="m160.815 169.486-2.11238-1.64827z"/>
  </g>
  <path d="m142.901 256.645c1.45035-0.0144 2.41436-1.20844 2.61948-2.64428l1.32291-9.26042c1e-5 -0.73062-2.96144-1.32292-6.61458-1.32292s-6.61459 0.5923-6.61458 1.32292l1.32291 9.26042c0.20515 1.43604 1.16894 2.63035 2.61948 2.6448 2.58367 0 2.72127-5.3e-4 5.34438-5.3e-4z" stroke-linejoin="round"/>
  <g transform="translate(0,73.4167)">
   <path d="m146.844 186.536s-2.66815 0.73588-6.61458 0.73588-6.61458-0.73588-6.61458-0.73588l1.32291-1.32289s2.2745 0.41296 5.29167 0.41296 5.29167-0.41298 5.29167-0.41298z" stroke-linejoin="round"/>
   <path d="m142.09 185.576-0.53824-2.34797z"/>
   <path d="m145.007 185.294-1.64827-2.11238z"/>
   <path d="m138.368 185.576 0.53824-2.34797z"/>
   <path d="m135.452 185.294 1.64827-2.11238z"/>
  </g>
  <path d="m121.71 240.798c0.0144 1.45035 1.20844 2.41436 2.64428 2.61948l9.26042 1.32291c0.73062 1e-5 1.32292-2.96144 1.32292-6.61458s-0.5923-6.61459-1.32292-6.61458l-9.26042 1.32291c-1.43604 0.20515-2.63035 1.16894-2.6448 2.61948 0 2.58367 5.3e-4 2.72127 5.3e-4 5.34438z" stroke-linejoin="round"/>
  <g transform="translate(0,73.4167)">
   <path d="m118.401 171.323s-0.73588-2.66815-0.73588-6.61459c0-3.94643 0.73588-6.61457 0.73588-6.61457l1.3229 1.3229s-0.41296 2.2745-0.41296 5.29167c0 3.01718 0.41298 5.29168 0.41298 5.29168z" stroke-linejoin="round"/>
   <path d="m119.362 166.569 2.34797-0.53824z"/>
   <path d="m119.643 169.486 2.11238-1.64826z"/>
   <path d="m119.362 162.847 2.34797 0.53824z"/>
   <path d="m119.643 159.931 2.11238 1.64828z"/>
  </g>
 </g>
 <rect x="124.354" y="222.25" width="31.75" height="31.75" fill="#f4e3d7" stroke="#502d16" stroke-linejoin="round" stroke-width=".529167"/>
 <g fill="#a05a2c" stroke="#502d16" stroke-width=".529167">
  <path d="m211.64 219.606c-1.45035 0.0144-2.41436 1.20844-2.61948 2.64428l-1.32292 9.26042c-1e-5 0.73062 2.96145 1.32292 6.61459 1.32292 3.65313 0 6.61459-0.5923 6.61458-1.32292l-1.32292-9.26042c-0.20515-1.43604-1.16893-2.63035-2.61948-2.6448-2.58367 0-2.72126 5.3e-4 -5.34437 5.3e-4z" stroke-linejoin="round"/>
  <g transform="translate(0,73.4167)">
   <path d="m207.698 142.88s2.66815-0.73588 6.61458-0.73588 6.61458 0.73588 6.61458 0.73588l-1.32291 1.32289s-2.2745-0.41296-5.29167-0.41296-5.29167 0.41298-5.29167 0.41298z" stroke-linejoin="round"/>
   <path d="m212.451 143.841 0.53824 2.34797z"/>
   <path d="m209.535 144.122 1.64827 2.11238z"/>
   <path d="m216.174 143.841-0.53824 2.34797z"/>
   <path d="m219.09 144.122-1.64827 2.11238z"/>
  </g>
  <path d="m216.985 256.645c1.45035-0.0144 2.41436-1.20844 2.61948-2.64428l1.32291-9.26042c1e-5 -0.73062-2.96144-1.32292-6.61458-1.32292s-6.61459 0.5923-6.61458 1.32292l1.32291 9.26042c0.20515 1.43604 1.16894 2.63035 2.61948 2.6448 2.58367 0 2.72127-5.3e-4 5.34438-5.3e-4z" stroke-linejoin="round"/>
  <g transform="translate(0,73.4167)">
   <path d="m220.927 186.536s-2.66815 0.73588-6.61458 0.73588-6.61458-0.73588-6.61458-0.73588l1.32291-1.32289s2.2745 0.41296 5.29167 0.41296 5.29167-0.41298 5.29167-0.41298z" stroke-linejoin="round"/>
   <path d="m216.174 185.576-0.53824-2.34797z"/>
   <path d="m219.09 185.294-1.64827-2.11238z"/>
   <path d="m212.451 185.576 0.53824-2.34797z"/>
   <path d="m209.535 185.294 1.64827-2.11238z"/>
  </g>
  <path d="m195.793 240.798c0.0145 1.45035 1.20844 2.41436 2.64428 2.61948l9.26042 1.32291c0.73062 1e-5 1.32292-2.96144 1.32292-6.61458s-0.5923-6.61459-1.32292-6.61458l-9.26042 1.32291c-1.43604 0.20515-2.63035 1.16894-2.6448 2.61948 0 2.58367 5.3e-4 2.72127 5.3e-4 5.34438z" stroke-linejoin="round"/>
  <g transform="translate(0,73.4167)">
   <path d="m192.484 171.323s-0.73588-2.66815-0.73588-6.61458 0.73588-6.61458 0.73588-6.61458l1.32289 1.32291s-0.41296 2.2745-0.41296 5.29167 0.41298 5.29167 0.41298 5.29167z" stroke-linejoin="round"/>
   <path d="m193.445 166.569 2.34797-0.53824z"/>
   <path d="m193.726 169.486 2.11238-1.64827z"/>
   <path d="m193.445 162.847 2.34797 0.53824z"/>
   <path d="m193.726 159.931 2.11238 1.64827z"/>
  </g>
 </g>
 <rect x="198.438" y="222.25" width="31.75" height="31.75" fill="#f4e3d7" stroke="#502d16" stroke-linejoin="round" stroke-width=".529167"/>
 <g fill="#a05a2c" stroke="#502d16" stroke-width=".529167">
  <path d="m211.64 285.752c-1.45035 0.0145-2.41436 1.20844-2.61948 2.64428l-1.32292 9.26042c-1e-5 0.73062 2.96145 1.32292 6.61459 1.32292 3.65313 0 6.61459-0.5923 6.61458-1.32292l-1.32292-9.26042c-0.20515-1.43604-1.16893-2.63035-2.61948-2.6448-2.58367 0-2.72126 5.3e-4 -5.34437 5.3e-4z" stroke-linejoin="round"/>
  <g transform="translate(0,73.4167)">
   <path d="m207.698 209.026s2.66815-0.73588 6.61458-0.73588 6.61458 0.73588 6.61458 0.73588l-1.32291 1.32289s-2.2745-0.41296-5.29167-0.41296-5.29167 0.41298-5.29167 0.41298z" stroke-linejoin="round"/>
   <path d="m212.451 209.987 0.53824 2.34797z"/>
   <path d="m209.535 210.268 1.64827 2.11238z"/>
   <path d="m216.174 209.987-0.53824 2.34797z"/>
   <path d="m219.09 210.268-1.64827 2.11238z"/>
  </g>
  <path d="m216.985 322.79c1.45035-0.0144 2.41436-1.20844 2.61948-2.64428l1.32291-9.26042c1e-5 -0.73062-2.96144-1.32292-6.61458-1.32292s-6.61459 0.5923-6.61458 1.32292l1.32291 9.26042c0.20515 1.43604 1.16894 2.63035 2.61948 2.6448 2.58367 0 2.72127-5.3e-4 5.34438-5.3e-4z" stroke-linejoin="round"/>
  <g transform="translate(0,73.4167)">
   <path d="m220.927 252.682s-2.66815 0.73588-6.61458 0.73588-6.61458-0.73588-6.61458-0.73588l1.32291-1.32289s2.2745 0.41296 5.29167 0.41296 5.29167-0.41298 5.29167-0.41298z" stroke-linejoin="round"/>
   <path d="m216.174 251.721-0.53824-2.34797z"/>
   <path d="m219.09 251.44-1.64827-2.11238z"/>
   <path d="m212.451 251.721 0.53824-2.34797z"/>
   <path d="m209.535 251.44 1.64827-2.11238z"/>
  </g>
  <path d="m195.793 306.943c0.0145 1.45035 1.20844 2.41436 2.64428 2.61948l9.26042 1.32291c0.73062 1e-5 1.32292-2.96144 1.32292-6.61458s-0.5923-6.61459-1.32292-6.61458l-9.26042 1.32291c-1.43604 0.20515-2.63035 1.16894-2.6448 2.61948 0 2.58367 5.3e-4 2.72127 5.3e-4 5.34438z" stroke-linejoin="round"/>
  <g transform="translate(0,73.4167)">
   <path d="m192.484 237.469s-0.73588-2.66815-0.73588-6.61458 0.73588-6.61458 0.73588-6.61458l1.32289 1.32291s-0.41296 2.2745-0.41296 5.29167 0.41298 5.29167 0.41298 5.29167z" stroke-linejoin="round"/>
   <path d="m193.445 232.715 2.34797-0.53824z"/>
   <path d="m193.726 235.632 2.11238-1.64827z"/>
   <path d="m193.445 228.993 2.34797 0.53824z"/>
   <path d="m193.726 226.077 2.11238 1.64827z"/>
  </g>
 </g>
 <rect x="198.438" y="288.396" width="31.75" height="31.75" fill="#f4e3d7" stroke="#502d16" stroke-linejoin="round" stroke-width=".529167"/>
 <g fill="#a05a2c" stroke="#502d16" stroke-width=".529167">
  <path d="m280.432 291.044c-1.45035 0.0144-2.41436 1.20844-2.61948 2.64428l-1.32291 9.26042c-1e-5 0.73062 2.96144 1.32292 6.61458 1.32292s6.61459-0.5923 6.61458-1.32292l-1.32291-9.26042c-0.20515-1.43604-1.16894-2.63035-2.61948-2.6448-2.58367 0-2.72127 5.3e-4 -5.34438 5.3e-4z" stroke-linejoin="round"/>
  <g transform="translate(0,73.4167)">
   <path d="m276.49 214.318s2.66815-0.73588 6.61458-0.73588 6.61458 0.73588 6.61458 0.73588l-1.32291 1.32289s-2.2745-0.41296-5.29167-0.41296-5.29167 0.41298-5.29167 0.41298z" stroke-linejoin="round"/>
   <path d="m281.243 215.279 0.53824 2.34797z"/>
   <path d="m278.327 215.56 1.64827 2.11238z"/>
   <path d="m284.965 215.279-0.53824 2.34797z"/>
   <path d="m287.882 215.56-1.64827 2.11238z"/>
  </g>
  <path d="m285.776 322.79c1.45035-0.0144 2.41436-1.20844 2.61948-2.64428l1.32291-9.26042c1e-5 -0.73062-2.96144-1.32292-6.61458-1.32292s-6.61459 0.5923-6.61458 1.32292l1.32291 9.26042c0.20515 1.43604 1.16894 2.63035 2.61948 2.6448 2.58367 0 2.72127-5.3e-4 5.34438-5.3e-4z" stroke-linejoin="round"/>
  <g transform="translate(0,73.4167)">
   <path d="m289.719 252.682s-2.66815 0.73588-6.61458 0.73588-6.61458-0.73588-6.61458-0.73588l1.32291-1.32289s2.2745 0.41296 5.29167 0.41296 5.29167-0.41298 5.29167-0.41298z" stroke-linejoin="round"/>
   <path d="m284.965 251.721-0.53824-2.34797z"/>
   <path d="m287.882 251.44-1.64827-2.11238z"/>
   <path d="m281.243 251.721 0.53824-2.34797z"/>
   <path d="m278.327 251.44 1.64827-2.11238z"/>
  </g>
  <path d="m306.943 322.79c1.45035-0.0144 2.41436-1.20844 2.61948-2.64428l1.32291-9.26042c1e-5 -0.73062-2.96144-1.32292-6.61458-1.32292s-6.61459 0.5923-6.61458 1.32292l1.32291 9.26042c0.20515 1.43604 1.16894 2.63035 2.61948 2.6448 2.58367 0 2.72127-5.3e-4 5.34438-5.3e-4z" stroke-linejoin="round"/>
  <g transform="translate(0,73.4167)">
   <path d="m310.885 252.682s-2.66815 0.73588-6.61458 0.73588-6.61458-0.73588-6.61458-0.73588l1.32291-1.32289s2.2745 0.41296 5.29167 0.41296 5.29167-0.41298 5.29167-0.41298z" stroke-linejoin="round"/>
   <path d="m306.132 251.721-0.53824-2.34797z"/>
   <path d="m309.048 251.44-1.64827-2.11238z"/>
   <path d="m302.41 251.721 0.53824-2.34797z"/>
   <path d="m299.493 251.44 1.64827-2.11238z"/>
  </g>
  <path d="m301.599 291.044c-1.45035 0.0144-2.41436 1.20844-2.61948 2.64428l-1.32291 9.26042c-1e-5 0.73062 2.96144 1.32292 6.61458 1.32292s6.61459-0.5923 6.61458-1.32292l-1.32291-9.26042c-0.20515-1.43604-1.16894-2.63035-2.61948-2.6448-2.58367 0-2.72127 5.3e-4 -5.34438 5.3e-4z" stroke-linejoin="round"/>
  <g transform="translate(0,73.4167)">
   <path d="m297.656 214.318s2.66815-0.73588 6.61458-0.73588 6.61458 0.73588 6.61458 0.73588l-1.32291 1.32289s-2.2745-0.41296-5.29167-0.41296-5.29167 0.41298-5.29167 0.41298z" stroke-linejoin="round"/>
   <path d="m302.41 215.279 0.53824 2.34797z"/>
   <path d="m299.493 215.56 1.64827 2.11238z"/>
   <path d="m306.132 215.279-0.53824 2.34797z"/>
   <path d="m309.048 215.56-1.64827 2.11238z"/>
  </g>
 </g>
 <rect x="272.521" y="293.688" width="42.3333" height="26.4583" fill="#f4e3d7" stroke="#502d16" stroke-linejoin="round" stroke-width=".529167"/>
 <g fill="#a05a2c" stroke="#502d16" stroke-width=".529167">
  <path d="m280.432 230.189c-1.45035 0.0144-2.41436 1.20844-2.61948 2.64428l-1.32291 9.26042c-1e-5 0.73062 2.96144 1.32292 6.61458 1.32292s6.61459-0.5923 6.61458-1.32292l-1.32291-9.26042c-0.20515-1.43604-1.16894-2.63035-2.61948-2.6448-2.58367 0-2.72127 5.3e-4 -5.34438 5.3e-4z" stroke-linejoin="round"/>
  <g transform="translate(0,73.4167)">
   <path d="m276.49 153.464s2.66815-0.73588 6.61458-0.73588 6.61458 0.73588 6.61458 0.73588l-1.32291 1.32289s-2.2745-0.41296-5.29167-0.41296-5.29167 0.41298-5.29167 0.41298z" stroke-linejoin="round"/>
   <path d="m281.243 154.424 0.53824 2.34797z"/>
   <path d="m278.327 154.706 1.64827 2.11238z"/>
   <path d="m284.965 154.424-0.53824 2.34797z"/>
   <path d="m287.882 154.706-1.64827 2.11238z"/>
  </g>
  <path d="m285.776 261.936c1.45035-0.0144 2.41436-1.20844 2.61948-2.64428l1.32291-9.26042c1e-5 -0.73062-2.96144-1.32292-6.61458-1.32292s-6.61459 0.5923-6.61458 1.32292l1.32291 9.26042c0.20515 1.43604 1.16894 2.63035 2.61948 2.6448 2.58367 0 2.72127-5.3e-4 5.34438-5.3e-4z" stroke-linejoin="round"/>
  <g transform="translate(0,73.4167)">
   <path d="m289.719 191.828s-2.66815 0.73588-6.61458 0.73588-6.61458-0.73588-6.61458-0.73588l1.32291-1.32289s2.2745 0.41296 5.29167 0.41296 5.29167-0.41298 5.29167-0.41298z" stroke-linejoin="round"/>
   <path d="m284.965 190.867-0.53824-2.34797z"/>
   <path d="m287.882 190.586-1.64827-2.11238z"/>
   <path d="m281.243 190.867 0.53824-2.34797z"/>
   <path d="m278.327 190.586 1.64827-2.11238z"/>
  </g>
  <path d="m306.943 261.936c1.45035-0.0144 2.41436-1.20844 2.61948-2.64428l1.32291-9.26042c1e-5 -0.73062-2.96144-1.32292-6.61458-1.32292s-6.61459 0.5923-6.61458 1.32292l1.32291 9.26042c0.20515 1.43604 1.16894 2.63035 2.61948 2.6448 2.58367 0 2.72127-5.3e-4 5.34438-5.3e-4z" stroke-linejoin="round"/>
  <g transform="translate(0,73.4167)">
   <path d="m310.885 191.828s-2.66815 0.73588-6.61458 0.73588-6.61458-0.73588-6.61458-0.73588l1.32291-1.32289s2.2745 0.41296 5.29167 0.41296 5.29167-0.41298 5.29167-0.41298z" stroke-linejoin="round"/>
   <path d="m306.132 190.867-0.53824-2.34797z"/>
   <path d="m309.048 190.586-1.64827-2.11238z"/>
   <path d="m302.41 190.867 0.53824-2.34797z"/>
   <path d="m299.493 190.586 1.64827-2.11238z"/>
  </g>
  <path d="m301.599 230.189c-1.45035 0.0144-2.41436 1.20844-2.61948 2.64428l-1.32291 9.26042c-1e-5 0.73062 2.96144 1.32292 6.61458 1.32292s6.61459-0.5923 6.61458-1.32292l-1.32291-9.26042c-0.20515-1.43604-1.16894-2.63035-2.61948-2.6448-2.58367 0-2.72127 5.3e-4 -5.34438 5.3e-4z" stroke-linejoin="round"/>
  <g transform="translate(0,73.4167)">
   <path d="m297.656 153.464s2.66815-0.73588 6.61458-0.73588 6.61458 0.73588 6.61458 0.73588l-1.32291 1.32289s-2.2745-0.41296-5.29167-0.41296-5.29167 0.41298-5.29167 0.41298z" stroke-linejoin="round"/>
   <path d="m302.41 154.424 0.53824 2.34797z"/>
   <path d="m299.493 154.706 1.64827 2.11238z"/>
   <path d="m306.132 154.424-0.53824 2.34797z"/>
   <path d="m309.048 154.706-1.64827 2.11238z"/>
  </g>
 </g>
 <rect x="272.521" y="232.834" width="42.3333" height="26.4583" fill="#f4e3d7" stroke="#502d16" stroke-linejoin="round" stroke-width=".529167"/>
 <g fill="#a05a2c" stroke="#502d16" stroke-width=".529167">
  <path d="m280.432 169.335c-1.45035 0.0144-2.41436 1.20844-2.61948 2.64428l-1.32291 9.26042c-1e-5 0.73062 2.96144 1.32292 6.61458 1.32292s6.61459-0.5923 6.61458-1.32292l-1.32291-9.26042c-0.20515-1.43604-1.16894-2.63035-2.61948-2.6448-2.58367 0-2.72127 5.3e-4 -5.34438 5.3e-4z" stroke-linejoin="round"/>
  <g transform="translate(0,73.4167)">
   <path d="m276.49 92.6094s2.66815-0.73588 6.61458-0.73588 6.61458 0.73588 6.61458 0.73588l-1.32291 1.32289s-2.2745-0.41296-5.29167-0.41296-5.29167 0.41298-5.29167 0.41298z" stroke-linejoin="round"/>
   <path d="m281.243 93.5702 0.53824 2.34797z"/>
   <path d="m278.327 93.8515 1.64827 2.11238z"/>
   <path d="m284.965 93.5702-0.53824 2.34797z"/>
   <path d="m287.882 93.8515-1.64827 2.11238z"/>
  </g>
  <path d="m285.776 201.082c1.45035-0.0144 2.41436-1.20844 2.61948-2.64428l1.32291-9.26042c1e-5 -0.73062-2.96144-1.32292-6.61458-1.32292s-6.61459 0.5923-6.61458 1.32292l1.32291 9.26042c0.20515 1.43604 1.16894 2.63035 2.61948 2.6448 2.58367 0 2.72127-5.3e-4 5.34438-5.3e-4z" stroke-linejoin="round"/>
  <g transform="translate(0,73.4167)">
   <path d="m289.719 130.974s-2.66815 0.73588-6.61458 0.73588-6.61458-0.73588-6.61458-0.73588l1.32291-1.32289s2.2745 0.41296 5.29167 0.41296 5.29167-0.41298 5.29167-0.41298z" stroke-linejoin="round"/>
   <path d="m284.965 130.013-0.53824-2.34797z"/>
   <path d="m287.882 129.732-1.64827-2.11238z"/>
   <path d="m281.243 130.013 0.53824-2.34797z"/>
   <path d="m278.327 129.732 1.64827-2.11238z"/>
  </g>
  <path d="m306.943 201.082c1.45035-0.0144 2.41436-1.20844 2.61948-2.64428l1.32291-9.26042c1e-5 -0.73062-2.96144-1.32292-6.61458-1.32292s-6.61459 0.5923-6.61458 1.32292l1.32291 9.26042c0.20515 1.43604 1.16894 2.63035 2.61948 2.6448 2.58367 0 2.72127-5.3e-4 5.34438-5.3e-4z" stroke-linejoin="round"/>
  <g transform="translate(0,73.4167)">
   <path d="m310.885 130.974s-2.66815 0.73588-6.61458 0.73588-6.61458-0.73588-6.61458-0.73588l1.32291-1.32289s2.2745 0.41296 5.29167 0.41296 5.29167-0.41298 5.29167-0.41298z" stroke-linejoin="round"/>
   <path d="m306.132 130.013-0.53824-2.34797z"/>
   <path d="m309.048 129.732-1.64827-2.11238z"/>
   <path d="m302.41 130.013 0.53824-2.34797z"/>
   <path d="m299.493 129.732 1.64827-2.11238z"/>
  </g>
  <path d="m301.599 169.335c-1.45035 0.0144-2.41436 1.20844-2.61948 2.64428l-1.32291 9.26042c-1e-5 0.73062 2.96144 1.32292 6.61458 1.32292s6.61459-0.5923 6.61458-1.32292l-1.32291-9.26042c-0.20515-1.43604-1.16894-2.63035-2.61948-2.6448-2.58367 0-2.72127 5.3e-4 -5.34438 5.3e-4z" stroke-linejoin="round"/>
  <g transform="translate(0,73.4167)">
   <path d="m297.656 92.6094s2.66815-0.73588 6.61458-0.73588 6.61458 0.73588 6.61458 0.73588l-1.32291 1.32289s-2.2745-0.41296-5.29167-0.41296-5.29167 0.41298-5.29167 0.41298z" stroke-linejoin="round"/>
   <path d="m302.41 93.5702 0.53824 2.34797z"/>
   <path d="m299.493 93.8515 1.64827 2.11238z"/>
   <path d="m306.132 93.5702-0.53824 2.34797z"/>
   <path d="m309.048 93.8515-1.64827 2.11238z"/>
  </g>
 </g>
 <rect x="272.521" y="171.979" width="42.3333" height="26.4583" fill="#f4e3d7" stroke="#502d16" stroke-linejoin="round" stroke-width=".529167"/>
 <g fill="#333" stroke="#000" stroke-linejoin="round" stroke-width=".529167">
  <rect x="261.938" y="153.458" width="5.29167" height="5.29167"/>
  <path d="m266.949 34.0775c-1.16924 7.94e-4 -2.13302 0.898764-2.53369 1.88929s-1.35253 1.3795-2.32027 1.3808c-0.0527-6.4e-5 -0.10499-3e-3 -0.1571-0.0062v12.9294h5.29167v-16.1737c-0.0929-0.01-0.18591-0.01958-0.28061-0.01963z"/>
  <rect x="267.229" y="153.458" width="47.625" height="5.29167"/>
  <rect x="314.854" y="153.458" width="5.29167" height="5.29167"/>
  <rect x="314.854" y="214.313" width="5.29167" height="127"/>
  <rect x="248.708" y="153.458" width="5.29167" height="5.29167"/>
  <rect x="254" y="153.458" width="7.93751" height="5.29167"/>
  <rect x="248.708" y="158.75" width="5.29167" height="182.562"/>
 </g>
 <g stroke-linejoin="round" stroke-width=".529167">
  <rect x="248.708" y="320.146" width="5.29167" height="21.1667" fill="#fff" stroke="#917c6f"/>
  <rect x="250.031" y="320.146" width="2.64583" height="21.1667" fill="#5fbcd3" stroke="#216778"/>
  <rect x="251.354" y="322.792" width="1.9251e-12" height="15.875" fill="#5fbcd3" stroke="#216778"/>
  <rect x="248.708" y="293.688" width="5.29167" height="21.1667" fill="#fff" stroke="#917c6f"/>
  <rect x="250.031" y="293.688" width="2.64583" height="21.1667" fill="#5fbcd3" stroke="#216778"/>
  <rect x="251.354" y="296.334" width="1.9251e-12" height="15.875" fill="#5fbcd3" stroke="#216778"/>
  <rect x="248.708" y="267.229" width="5.29167" height="21.1667" fill="#fff" stroke="#917c6f"/>
  <rect x="250.031" y="267.229" width="2.64583" height="21.1667" fill="#5fbcd3" stroke="#216778"/>
  <rect x="251.354" y="269.875" width="1.9251e-12" height="15.875" fill="#5fbcd3" stroke="#216778"/>
  <rect x="248.708" y="214.313" width="5.29167" height="21.1667" fill="#fff" stroke="#917c6f"/>
  <rect x="250.031" y="214.313" width="2.64583" height="21.1667" fill="#5fbcd3" stroke="#216778"/>
  <rect x="251.354" y="216.959" width="1.9251e-12" height="15.875" fill="#5fbcd3" stroke="#216778"/>
  <rect x="248.708" y="240.771" width="5.29167" height="21.1667" fill="#fff" stroke="#917c6f"/>
  <rect x="250.031" y="240.771" width="2.64583" height="21.1667" fill="#5fbcd3" stroke="#216778"/>
  <rect x="251.354" y="243.417" width="1.9251e-12" height="15.875" fill="#5fbcd3" stroke="#216778"/>
  <rect x="248.708" y="161.396" width="5.29167" height="47.625" fill="#fff" stroke="#917c6f"/>
 </g>
 <g fill="#5fbcd3" stroke="#216778" stroke-linejoin="round" stroke-width=".529167">
  <rect x="248.708" y="183.886" width="2.64583" height="25.1354"/>
  <rect x="250.031" y="186.532" width="1.9251e-12" height="19.8438"/>
  <rect x="251.354" y="161.396" width="2.64583" height="25.1354"/>
  <rect x="252.677" y="164.042" width="1.9251e-12" height="19.8438"/>
 </g>
 <g stroke-linejoin="round" stroke-width=".529167">
  <path d="m336.339 158.469c-7.9e-4 -1.16924-0.89876-2.13302-1.88929-2.53369s-1.3795-1.35253-1.38079-2.32027c6e-5 -0.0527 3e-3 -0.10499 6e-3 -0.1571h-12.9292v5.29167h16.1737c0.01-0.0929 0.0196-0.18591 0.0196-0.28061z" fill="#333" stroke="#000"/>
  <rect transform="scale(-1)" x="-267.229" y="-132.292" width="5.29167" height="52.9166" fill="#fff" stroke="#917c6f"/>
  <rect transform="scale(-1)" x="-265.906" y="-132.292" width="2.64583" height="52.9167" fill="#6f7c91" stroke="#373e48"/>
  <rect x="227.542" y="97.8959" width="15.875" height="15.875" fill="#f0f0f0" stroke="#000"/>
 </g>
 <circle cx="232.426" cy="100.949" r="1.22115"/>
 <path d="m231.205 102.78a1.22115 1.22115 0 0 0-1.22115 1.22115v3.66346h1.22115v4.88462h2.44231v-4.88462h1.22115v-3.66346a1.22115 1.22115 0 0 0-1.22115-1.22115z"/>
 <circle cx="238.532" cy="100.949" r="1.22115"/>
 <path d="m238.532 102.78a1.83173 1.52645 0 0 0-1.81695 1.34446l-1e-3 -2.4e-4 -4e-3 0.0267a1.83173 1.52645 0 0 0-9.8e-4 5e-3l-0.6194 4.72959h1.22142v3.66346h2.44231v-3.66346h1.22091l-0.62369-4.76155-2e-3 2.4e-4a1.83173 1.52645 0 0 0-1.816-1.34447z"/>
 <g stroke="#000" stroke-linejoin="round">
  <path d="m252.677 101.865v2.64583h-5.29167v2.64583h5.29167v2.64583l3.96875-3.96875z" fill="#f0f0f0" stroke-width=".529167"/>
  <rect x="203.729" y="74.0834" width="15.875" height="15.875" fill="#f0f0f0" stroke-width=".529167"/>
  <path d="m207.393 77.7468v10.9904h8.54805v-10.9904zm1.22115 0.610576a0.610576 0.610576 0 0 1 0.61057 0.610575 0.610576 0.610576 0 0 1-0.61057 0.610576 0.610576 0.610576 0 0 1-0.61058-0.610576 0.610576 0.610576 0 0 1 0.61058-0.610575zm1.83172 0a0.610576 0.610576 0 0 1 0.61058 0.610575 0.610576 0.610576 0 0 1-0.61058 0.610576 0.610576 0.610576 0 0 1-0.61057-0.610576 0.610576 0.610576 0 0 1 0.61057-0.610575zm1.83173 0a0.610576 0.610576 0 0 1 0.61058 0.610575 0.610576 0.610576 0 0 1-0.61058 0.610576 0.610576 0.610576 0 0 1-0.61057-0.610576 0.610576 0.610576 0 0 1 0.61057-0.610575zm1.83173 0h0.61057a0.610576 0.610576 0 0 1 0.61058 0.610575 0.610576 0.610576 0 0 1-0.61058 0.610576h-0.61057a0.610576 0.610576 0 0 1-0.61058-0.610576 0.610576 0.610576 0 0 1 0.61058-0.610575zm-5.49518 2.19783h6.10575v0.488936h-6.10575zm0 0.855043h6.10575v6.10576h-6.10575z" stroke-width=".528999"/>
  <path d="m207.698 64.823h2.64584v5.29167h2.64583v-5.29167h2.64583l-3.96875-3.96875z" fill="#f0f0f0" stroke-width=".529167"/>
 </g>
 <g fill="#a05a2c" stroke="#502d16" stroke-width=".529167">
  <path d="m164.015 161.397c-1.45035 0.0144-2.41436 1.20844-2.61948 2.64428l-1.32292 9.26042c-1e-5 0.73062 2.96144 1.32292 6.61458 1.32292s6.61459-0.5923 6.61459-1.32292l-1.32292-9.26042c-0.20515-1.43604-1.16893-2.63035-2.61948-2.6448-2.58367 0-2.72126 5.3e-4 -5.34437 5.3e-4z" stroke-linejoin="round"/>
  <g transform="translate(0,73.4167)">
   <path d="m160.073 84.6719s2.66815-0.73588 6.61458-0.73588 6.61458 0.73588 6.61458 0.73588l-1.32291 1.32289s-2.2745-0.41296-5.29166-0.41296c-3.01717 0-5.29167 0.41298-5.29167 0.41298z" stroke-linejoin="round"/>
   <path d="m164.826 85.6327 0.53824 2.34797z"/>
   <path d="m161.91 85.914 1.64827 2.11238z"/>
   <path d="m168.549 85.6327-0.53824 2.34797z"/>
   <path d="m171.465 85.914-1.64826 2.11238z"/>
  </g>
  <path d="m185.182 161.397c-1.45035 0.0144-2.41436 1.20844-2.61948 2.64428l-1.32292 9.26042c-1e-5 0.73062 2.96144 1.32292 6.61458 1.32292s6.61459-0.5923 6.61459-1.32292l-1.32292-9.26042c-0.20515-1.43604-1.16893-2.63035-2.61948-2.6448-2.58367 0-2.72126 5.3e-4 -5.34437 5.3e-4z" stroke-linejoin="round"/>
  <g transform="translate(0,73.4167)">
   <path d="m181.24 84.6719s2.66815-0.73588 6.61458-0.73588c3.94644 0 6.61458 0.73588 6.61458 0.73588l-1.32291 1.32289s-2.27449-0.41296-5.29167-0.41296c-3.01717 0-5.29166 0.41298-5.29166 0.41298z" stroke-linejoin="round"/>
   <path d="m185.993 85.6327 0.53823 2.34797z"/>
   <path d="m183.077 85.914 1.64827 2.11238z"/>
   <path d="m189.715 85.6327-0.53824 2.34797z"/>
   <path d="m192.632 85.914-1.64827 2.11238z"/>
  </g>
  <path d="m206.373 177.245c-0.0144-1.45035-1.20844-2.41436-2.64428-2.61948l-9.26042-1.32292c-0.73062-1e-5 -1.32292 2.96144-1.32292 6.61458s0.5923 6.61459 1.32292 6.61458l9.26042-1.32291c1.43604-0.20515 2.63035-1.16894 2.6448-2.61948 0-2.58367-5.3e-4 -2.72127-5.3e-4 -5.34438z" stroke-linejoin="round"/>
  <g transform="translate(0,73.4167)">
   <path d="m209.682 99.8854s0.73588 2.66815 0.73588 6.61458-0.73588 6.61458-0.73588 6.61458l-1.32289-1.32291s0.41296-2.2745 0.41296-5.29167-0.41298-5.29167-0.41298-5.29167z" stroke-linejoin="round"/>
   <path d="m208.721 104.639-2.34797 0.53824z"/>
   <path d="m208.44 101.722-2.11238 1.64827z"/>
   <path d="m208.721 108.361-2.34797-0.53824z"/>
   <path d="m208.44 111.278-2.11238-1.64827z"/>
  </g>
  <path d="m148.168 182.589c0.0145 1.45035 1.20844 2.41436 2.64428 2.61948l9.26042 1.32291c0.73063 1e-5 1.32292-2.96144 1.32292-6.61458s-0.59229-6.61459-1.32292-6.61458l-9.26042 1.32291c-1.43603 0.20515-2.63035 1.16894-2.64479 2.61948 0 2.58367 5.3e-4 2.72127 5.3e-4 5.34438z" stroke-linejoin="round"/>
  <g transform="translate(0,73.4167)">
   <path d="m144.859 113.115s-0.73588-2.66815-0.73588-6.61458 0.73588-6.61458 0.73588-6.61458l1.32289 1.32291s-0.41296 2.2745-0.41296 5.29167 0.41298 5.29167 0.41298 5.29167z" stroke-linejoin="round"/>
   <path d="m145.82 108.361 2.34797-0.53824z"/>
   <path d="m146.101 111.278 2.11238-1.64827z"/>
   <path d="m145.82 104.639 2.34797 0.53824z"/>
   <path d="m146.101 101.722 2.11238 1.64827z"/>
  </g>
  <path d="m169.36 198.436c1.45035-0.0144 2.41436-1.20844 2.61948-2.64428l1.32291-9.26042c1e-5 -0.73062-2.96144-1.32292-6.61458-1.32292s-6.61459 0.5923-6.61458 1.32292l1.32291 9.26042c0.20515 1.43604 1.16894 2.63035 2.61948 2.6448 2.58367 0 2.72127-5.3e-4 5.34438-5.3e-4z" stroke-linejoin="round"/>
  <g transform="translate(0,73.4167)">
   <path d="m173.302 128.328s-2.66815 0.73588-6.61458 0.73588-6.61458-0.73588-6.61458-0.73588l1.32291-1.32289s2.2745 0.41296 5.29167 0.41296 5.29167-0.41298 5.29167-0.41298z" stroke-linejoin="round"/>
   <path d="m168.549 127.367-0.53824-2.34797z"/>
   <path d="m171.465 127.086-1.64827-2.11238z"/>
   <path d="m164.826 127.367 0.53824-2.34797z"/>
   <path d="m161.91 127.086 1.64827-2.11238z"/>
  </g>
  <path d="m190.526 198.436c1.45035-0.0144 2.41436-1.20844 2.61948-2.64428l1.32291-9.26042c1e-5 -0.73062-2.96144-1.32292-6.61458-1.32292s-6.61459 0.5923-6.61458 1.32292l1.32291 9.26042c0.20515 1.43604 1.16894 2.63035 2.61948 2.6448 2.58367 0 2.72127-5.3e-4 5.34438-5.3e-4z" stroke-linejoin="round"/>
  <g transform="translate(0,73.4167)">
   <path d="m194.469 128.328s-2.66815 0.73588-6.61458 0.73588-6.61458-0.73588-6.61458-0.73588l1.32291-1.32289s2.2745 0.41296 5.29167 0.41296 5.29167-0.41298 5.29167-0.41298z" stroke-linejoin="round"/>
   <path d="m189.715 127.367-0.53824-2.34797z"/>
   <path d="m192.632 127.086-1.64827-2.11238z"/>
   <path d="m185.993 127.367 0.53824-2.34797z"/>
   <path d="m183.077 127.086 1.64827-2.11238z"/>
  </g>
 </g>
 <rect x="150.812" y="164.042" width="52.9167" height="31.75" fill="#f4e3d7" stroke="#502d16" stroke-linejoin="round" stroke-width=".529167"/>
 <g fill="#333" stroke="#000" stroke-linejoin="round" stroke-width=".529167">
  <rect x="314.854" y="341.313" width="5.29167" height="5.29167"/>
  <path d="m336.339 214.032c-7.9e-4 -1.16924-0.89876-2.13302-1.88929-2.53369s-1.3795-1.35253-1.38079-2.32027c6e-5 -0.0527 3e-3 -0.10499 6e-3 -0.1571h-12.9292v5.29167h16.1737c0.01-0.0929 0.0196-0.18591 0.0196-0.28061z"/>
  <rect x="314.854" y="209.021" width="5.29167" height="5.29167"/>
  <rect x="314.854" y="158.75" width="5.29167" height="50.2709"/>
 </g>
 <g transform="translate(0,73.4167)" stroke-linejoin="round" stroke-width=".529167">
  <rect x="314.854" y="217.625" width="5.29167" height="26.4583" fill="#fff" stroke="#917c6f"/>
  <rect x="316.177" y="217.625" width="2.64583" height="26.4583" fill="#5fbcd3" stroke="#216778"/>
  <rect x="317.5" y="220.271" width="1.9251e-12" height="21.1667" fill="#5fbcd3" stroke="#216778"/>
  <rect x="314.854" y="164.708" width="5.29167" height="26.4583" fill="#fff" stroke="#917c6f"/>
  <rect x="316.177" y="164.708" width="2.64583" height="26.4583" fill="#5fbcd3" stroke="#216778"/>
  <rect x="317.5" y="167.354" width="1.9251e-12" height="21.1667" fill="#5fbcd3" stroke="#216778"/>
 </g>
</svg>
