<?xml version="1.0" encoding="UTF-8"?>
<svg width="1100" height="1600" version="1.1" viewBox="0 0 291.042 423.333" xmlns="http://www.w3.org/2000/svg" xmlns:cc="http://creativecommons.org/ns#" xmlns:dc="http://purl.org/dc/elements/1.1/" xmlns:rdf="http://www.w3.org/1999/02/22-rdf-syntax-ns#" xmlns:xlink="http://www.w3.org/1999/xlink">
 <defs>
  <linearGradient id="a">
   <stop stop-color="#fff6d5" offset="0"/>
   <stop stop-color="#fff6d5" stop-opacity="0" offset="1"/>
  </linearGradient>
  <linearGradient id="b" x1="168.199" x2="178.405" y1="-46.9583" y2="-46.9583" gradientTransform="matrix(.777778 0 0 1.02632 35.8657 126.246)" gradientUnits="userSpaceOnUse" xlink:href="#a"/>
  <linearGradient id="c" x1="168.199" x2="178.405" y1="-46.9583" y2="-46.9583" gradientTransform="matrix(.777778 0 0 1.02632 -255.176 261.184)" gradientUnits="userSpaceOnUse" xlink:href="#a"/>
  <linearGradient id="h" x1="168.199" x2="178.405" y1="-46.9583" y2="-46.9583" gradientTransform="matrix(.777778 0 0 .763158 -255.176 100.66)" gradientUnits="userSpaceOnUse" xlink:href="#a"/>
  <linearGradient id="i" x1="168.199" x2="178.405" y1="-45.2248" y2="-45.2248" gradientTransform="matrix(-.777776 0 0 -.763158 202.259 31.6322)" gradientUnits="userSpaceOnUse" xlink:href="#a"/>
  <linearGradient id="j" x1="168.199" x2="178.405" y1="-49.6041" y2="-49.6041" gradientTransform="matrix(0 .777779 -.499998 0 54.5729 -43.5097)" gradientUnits="userSpaceOnUse" xlink:href="#a"/>
  <linearGradient id="k" x1="168.199" x2="178.405" y1="-46.9583" y2="-46.9583" gradientTransform="matrix(.777778 0 0 .473684 -228.718 -83.5896)" gradientUnits="userSpaceOnUse" xlink:href="#a"/>
 </defs>
 <metadata>
  <rdf:RDF>
   <cc:Work rdf:about="">
    <dc:format>image/svg+xml</dc:format>
    <dc:type rdf:resource="http://purl.org/dc/dcmitype/StillImage"/>
    <dc:title/>
   </cc:Work>
  </rdf:RDF>
 </metadata>
 <path d="m76.7291 82.0206-18.5208 18.5208h44.9791v-18.5208z" fill="url(#j)" stroke-width=".264583"/>
 <rect transform="scale(-1)" x="-103.188" y="-129.645" width="18.5208" height="47.625" fill="url(#k)"/>
 <rect x="79.375" y="29.1038" width="23.8125" height="52.9167" fill="#fff6d5"/>
 <path d="m58.2083 26.4583v74.0832l18.5208-18.5208v-55.5624z" fill="url(#i)" stroke-width=".264583"/>
 <rect transform="rotate(-90)" x="-129.645" y="161.396" width="18.5208" height="103.187" fill="url(#c)"/>
 <rect transform="rotate(-90)" x="-129.645" y="26.4583" width="18.5208" height="76.7292" fill="url(#h)"/>
 <rect x="161.396" y="26.458" width="18.5208" height="103.188" fill="url(#b)"/>
 <rect x="108.479" y="29.1038" width="47.625" height="105.833" fill="#fff6d5"/>
 <rect x="29.1042" y="134.937" width="232.833" height="259.292" fill="#fff6d5"/>
 <g transform="translate(0,126.333)" stroke="#502d16" stroke-linejoin="round" stroke-width=".529167">
  <path d="m247.925 219.541c1.03577 1.01534 2.56171 0.85271 3.72204-0.0175l7.48355-5.61266c0.51663-0.51662-1.15862-3.0295-3.74178-5.61266s-5.09603-4.25841-5.61266-3.74177l-5.61266 7.48355c-0.87037 1.16049-1.03338 2.68649-0.0179 3.7224 1.82693 1.82693 1.9246 1.92385 3.77942 3.77867z" fill="#a05a2c"/>
  <path d="m244.146 187.738c-1.01533 1.03577-0.85271 2.56171 0.0175 3.72204l5.61266 7.48355c0.51663 0.51663 3.0295-1.15862 5.61266-3.74178s4.25841-5.09603 3.74178-5.61266l-7.48355-5.61266c-1.16049-0.87037-2.6865-1.03338-3.72241-0.0179-1.82693 1.82693-1.92385 1.9246-3.77867 3.77942z" fill="#a05a2c"/>
  <path d="m243.419 201.48a18.5208 18.5208 0 0 0 5.42241 13.3666 18.5208 18.5208 0 0 0 13.0964 5.41259v-37.0179a18.5208 18.5208 0 0 0-13.0964 5.41259 18.5208 18.5208 0 0 0-5.42241 12.8261z" fill="#f4e3d7"/>
 </g>
 <g fill="#a05a2c" stroke="#502d16" stroke-width=".529167">
  <path d="m159.533 376.438c-1.03577-1.01533-2.56171-0.85271-3.72204 0.0175l-7.48355 5.61266c-0.51663 0.51663 1.15862 3.0295 3.74178 5.61266s5.09603 4.25841 5.61266 3.74177l5.61266-7.48354c0.87037-1.1605 1.03338-2.6865 0.0179-3.72241-1.82693-1.82693-1.9246-1.92385-3.77942-3.77867z" stroke-linejoin="round"/>
  <g transform="translate(0,126.333)">
   <path d="m159.085 244.977s2.40702 1.36632 5.19756 4.15687c2.79055 2.79055 4.15687 5.19756 4.15687 5.19756l-1.87086-2e-5s-1.31631-1.90032-3.44977-4.03378-4.0338-3.44975-4.0338-3.44975z" stroke-linejoin="round"/>
   <path d="m161.767 249.018-1.27967 2.04086z"/>
   <path d="m159.506 247.154-0.32817 2.65918z"/>
   <path d="m164.399 251.65-2.04086 1.27967z"/>
   <path d="m166.262 253.911-2.65918 0.32817z"/>
  </g>
  <path d="m127.73 380.217c-1.01534 1.03577-0.85271 2.56171 0.0175 3.72204l5.61266 7.48355c0.51662 0.51663 3.0295-1.15862 5.61266-3.74178s4.25841-5.09603 3.74177-5.61266l-7.48355-5.61266c-1.16049-0.87037-2.68649-1.03338-3.7224-0.0179-1.82693 1.82693-1.92385 1.9246-3.77867 3.77942z" stroke-linejoin="round"/>
  <g transform="translate(0,126.333)">
   <path d="m122.602 254.332s1.36632-2.40702 4.15687-5.19756c2.79055-2.79055 5.19756-4.15687 5.19756-4.15687l-1e-5 1.87086s-1.90032 1.31631-4.03379 3.44977c-2.13346 2.13346-3.44975 4.0338-3.44975 4.0338z" stroke-linejoin="round"/>
   <path d="m126.643 251.65 2.04085 1.27967z"/>
   <path d="m124.779 253.911 2.65919 0.32817z"/>
   <path d="m129.275 249.018 1.27968 2.04086z"/>
   <path d="m131.536 247.154 0.32818 2.65918z"/>
  </g>
 </g>
 <path d="m145.791 375.71a18.5208 18.5208 0 0 0-13.3666 5.42241 18.5208 18.5208 0 0 0-5.41259 13.0964h37.0179a18.5208 18.5208 0 0 0-5.41259-13.0964 18.5208 18.5208 0 0 0-12.8261-5.42241z" fill="#f4e3d7" stroke="#502d16" stroke-linejoin="round" stroke-width=".529167"/>
 <g fill="#a05a2c" stroke="#502d16" stroke-width=".529167">
  <path d="m244.146 157.967c-1.01533 1.03577-0.85271 2.56171 0.0175 3.72204l5.61266 7.48355c0.51663 0.51664 3.0295-1.15861 5.61266-3.74177s4.25841-5.09604 3.74177-5.61266l-7.48354-5.61266c-1.1605-0.87037-2.6865-1.03338-3.72241-0.0179-1.82693 1.82693-1.92385 1.9246-3.77867 3.77942z" stroke-linejoin="round"/>
  <g transform="translate(0,126.333)">
   <path d="m239.019 32.0816s1.36632-2.40701 4.15687-5.19756c2.79054-2.79055 5.19756-4.15687 5.19756-4.15687l-2e-5 1.87086s-1.90032 1.31631-4.03378 3.44977-3.44975 4.0338-3.44975 4.0338z" stroke-linejoin="round"/>
   <path d="m243.059 29.3998 2.04086 1.27967z"/>
   <path d="m241.196 31.6609 2.65918 0.328175z"/>
   <path d="m245.691 26.7677 1.27967 2.04086z"/>
   <path d="m247.953 24.9044 0.32817 2.65918z"/>
  </g>
  <path d="m247.925 189.77c1.03577 1.01534 2.56171 0.85271 3.72204-0.0175l7.48355-5.61266c0.51663-0.51662-1.15862-3.0295-3.74178-5.61266s-5.09603-4.25841-5.61266-3.74177l-5.61266 7.48355c-0.87037 1.16049-1.03338 2.6865-0.0179 3.72241 1.82693 1.82693 1.9246 1.92385 3.77942 3.77867z" stroke-linejoin="round"/>
  <g transform="translate(0,126.333)">
   <path d="m248.373 68.5645s-2.40701-1.36632-5.19756-4.15687c-2.79054-2.79055-4.15686-5.19756-4.15686-5.19756l1.87086 1.4e-5s1.31631 1.90032 3.44977 4.03378 4.03379 3.44975 4.03379 3.44975z" stroke-linejoin="round"/>
   <path d="m245.691 64.524 1.27967-2.04086z"/>
   <path d="m247.953 66.3873 0.32817-2.65918z"/>
   <path d="m243.059 61.8919 2.04086-1.27967z"/>
   <path d="m241.196 59.6308 2.65918-0.328175z"/>
  </g>
 </g>
 <path d="m243.419 171.709a18.5208 18.5208 0 0 0 5.4224 13.3666 18.5208 18.5208 0 0 0 13.0964 5.41259v-37.0179a18.5208 18.5208 0 0 0-13.0964 5.41259 18.5208 18.5208 0 0 0-5.4224 12.8261z" fill="#f4e3d7" stroke="#502d16" stroke-linejoin="round" stroke-width=".529167"/>
 <g fill="#333" stroke="#000" stroke-linejoin="round" stroke-width=".529167">
  <rect x="29.1042" y="394.229" width="232.833" height="5.29167"/>
  <rect x="23.8125" y="134.937" width="5.29167" height="259.292"/>
  <rect x="23.8125" y="394.229" width="5.29167" height="5.29167"/>
  <rect x="261.938" y="394.229" width="5.29167" height="5.29167"/>
 </g>
 <g fill="#a05a2c" stroke="#502d16" stroke-width=".529167">
  <path d="m80.1581 376.438c-1.03577-1.01533-2.56171-0.85271-3.72204 0.0175l-7.48355 5.61266c-0.516636 0.51663 1.15861 3.0295 3.74177 5.61266s5.09604 4.25841 5.61266 3.74178l5.61266-7.48355c0.870373-1.1605 1.03338-2.6865 0.0179-3.72241-1.82693-1.82693-1.9246-1.92385-3.77942-3.77867z" stroke-linejoin="round"/>
  <g transform="translate(0,126.333)">
   <path d="m79.7101 244.977s2.40701 1.36632 5.19756 4.15687 4.15687 5.19756 4.15687 5.19756l-1.87086-2e-5s-1.31631-1.90032-3.44977-4.03378-4.0338-3.44975-4.0338-3.44975z" stroke-linejoin="round"/>
   <path d="m82.3919 249.018-1.27967 2.04086z"/>
   <path d="m80.1307 247.154-0.328175 2.65918z"/>
   <path d="m85.0239 251.65-2.04086 1.27967z"/>
   <path d="m86.8873 253.911-2.65918 0.32817z"/>
  </g>
  <path d="m48.3545 380.217c-1.01534 1.03577-0.852711 2.56171 0.01754 3.72204l5.61266 7.48355c0.516624 0.51663 3.0295-1.15862 5.61266-3.74178s4.25841-5.09603 3.74177-5.61266l-7.48355-5.61266c-1.16049-0.87037-2.6865-1.03338-3.72241-0.0179-1.82693 1.82693-1.92385 1.9246-3.77867 3.77942z" stroke-linejoin="round"/>
  <g transform="translate(0,126.333)">
   <path d="m43.2271 254.332s1.36632-2.40702 4.15687-5.19756c2.79055-2.79055 5.19756-4.15687 5.19756-4.15687l-1.4e-5 1.87086s-1.90032 1.31631-4.03378 3.44977-3.44976 4.0338-3.44976 4.0338z" stroke-linejoin="round"/>
   <path d="m47.2677 251.65 2.04086 1.27967z"/>
   <path d="m45.4044 253.911 2.65918 0.32817z"/>
   <path d="m49.8998 249.018 1.27967 2.04086z"/>
   <path d="m52.1609 247.154 0.328176 2.65918z"/>
  </g>
 </g>
 <path d="m66.4161 375.71a18.5208 18.5208 0 0 0-13.3666 5.42241 18.5208 18.5208 0 0 0-5.41259 13.0964h37.0179a18.5208 18.5208 0 0 0-5.41259-13.0964 18.5208 18.5208 0 0 0-12.8261-5.42241z" fill="#f4e3d7" stroke="#502d16" stroke-linejoin="round" stroke-width=".529167"/>
 <rect transform="rotate(90)" x="394.229" y="-92.6042" width="5.29167" height="52.9166" fill="#fff" stroke="#917c6f" stroke-linejoin="round" stroke-width=".529167"/>
 <g fill="#5fbcd3" stroke="#216778" stroke-linejoin="round" stroke-width=".529167">
  <rect transform="rotate(90)" x="395.552" y="-92.6042" width="2.64583" height="52.9166"/>
  <rect transform="rotate(90)" x="396.875" y="-63.5" width="1.9251e-12" height="21.1667"/>
  <rect transform="rotate(90)" x="396.875" y="-89.9583" width="1.9251e-12" height="21.1667"/>
 </g>
 <rect transform="rotate(90)" x="394.229" y="-171.979" width="5.29167" height="52.9166" fill="#fff" stroke="#917c6f" stroke-linejoin="round" stroke-width=".529167"/>
 <g fill="#5fbcd3" stroke="#216778" stroke-linejoin="round" stroke-width=".529167">
  <rect transform="rotate(90)" x="395.552" y="-171.979" width="2.64583" height="52.9166"/>
  <rect transform="rotate(90)" x="396.875" y="-142.875" width="1.9251e-12" height="21.1667"/>
  <rect transform="rotate(90)" x="396.875" y="-169.333" width="1.9251e-12" height="21.1667"/>
 </g>
 <g fill="#a05a2c" stroke="#502d16" stroke-width=".529167">
  <path d="m238.908 376.438c-1.03577-1.01533-2.56171-0.85271-3.72204 0.0175l-7.48355 5.61266c-0.51663 0.51663 1.15862 3.0295 3.74178 5.61266s5.09603 4.25841 5.61266 3.74178l5.61266-7.48355c0.87037-1.16049 1.03338-2.6865 0.0179-3.72241-1.82693-1.82693-1.9246-1.92385-3.77942-3.77867z" stroke-linejoin="round"/>
  <g transform="translate(0,126.333)">
   <path d="m238.46 244.977s2.40701 1.36632 5.19756 4.15687c2.79054 2.79055 4.15687 5.19756 4.15687 5.19756l-1.87087-1e-5s-1.31631-1.90033-3.44977-4.03379-4.03379-3.44975-4.03379-3.44975z" stroke-linejoin="round"/>
   <path d="m241.142 249.018-1.27967 2.04086z"/>
   <path d="m238.881 247.154-0.32818 2.65918z"/>
   <path d="m243.774 251.65-2.04086 1.27967z"/>
   <path d="m245.637 253.911-2.65918 0.32818z"/>
  </g>
  <path d="m207.104 380.217c-1.01533 1.03577-0.85271 2.56171 0.0175 3.72204l5.61266 7.48355c0.51663 0.51663 3.0295-1.15862 5.61266-3.74178s4.25841-5.09603 3.74178-5.61266l-7.48355-5.61266c-1.16049-0.87037-2.6865-1.03338-3.72241-0.0179-1.82693 1.82693-1.92385 1.9246-3.77867 3.77942z" stroke-linejoin="round"/>
  <g transform="translate(0,126.333)">
   <path d="m201.977 254.332s1.36632-2.40702 4.15687-5.19756c2.79055-2.79055 5.19756-4.15687 5.19756-4.15687l-1e-5 1.87086s-1.90033 1.31631-4.03379 3.44977-3.44975 4.0338-3.44975 4.0338z" stroke-linejoin="round"/>
   <path d="m206.018 251.65 2.04086 1.27967z"/>
   <path d="m204.154 253.911 2.65918 0.32817z"/>
   <path d="m208.65 249.018 1.27967 2.04086z"/>
   <path d="m210.911 247.154 0.32818 2.65918z"/>
  </g>
 </g>
 <path d="m225.166 375.71a18.5208 18.5208 0 0 0-13.3666 5.42241 18.5208 18.5208 0 0 0-5.41259 13.0964h37.0179a18.5208 18.5208 0 0 0-5.41259-13.0964 18.5208 18.5208 0 0 0-12.8261-5.42241z" fill="#f4e3d7" stroke="#502d16" stroke-linejoin="round" stroke-width=".529167"/>
 <rect transform="rotate(90)" x="394.229" y="-251.354" width="5.29167" height="52.9166" fill="#fff" stroke="#917c6f" stroke-linejoin="round" stroke-width=".529167"/>
 <g fill="#5fbcd3" stroke="#216778" stroke-linejoin="round" stroke-width=".529167">
  <rect transform="rotate(90)" x="395.552" y="-251.354" width="2.64583" height="52.9166"/>
  <rect transform="rotate(90)" x="396.875" y="-222.25" width="1.9251e-12" height="21.1667"/>
  <rect transform="rotate(90)" x="396.875" y="-248.708" width="1.9251e-12" height="21.1667"/>
 </g>
 <g fill="#333" stroke="#000" stroke-linejoin="round" stroke-width=".529167">
  <rect x="261.938" y="134.937" width="5.29167" height="259.292"/>
  <rect x="261.938" y="129.645" width="5.29167" height="5.29167"/>
  <rect x="156.104" y="29.1038" width="5.29167" height="47.625"/>
  <rect x="156.104" y="82.0205" width="5.29167" height="47.625"/>
  <g transform="translate(0,126.333)">
   <rect x="156.104" y="-102.521" width="5.29167" height="5.29167"/>
   <rect x="76.7292" y="-49.6042" width="5.29167" height="5.29167"/>
   <rect x="103.188" y="3.3125" width="5.29167" height="5.29167"/>
   <rect x="23.8125" y="3.3125" width="5.29167" height="5.29167"/>
   <rect x="79.375" y="-102.521" width="76.7292" height="5.29167"/>
   <rect x="76.7292" y="-102.521" width="2.64584" height="5.29167"/>
  </g>
  <rect x="76.7292" y="29.1038" width="2.64583" height="47.625"/>
  <rect x="103.188" y="82.0205" width="5.29167" height="47.625"/>
  <rect x="29.1042" y="129.645" width="74.0833" height="5.29167"/>
 </g>
 <g stroke-linejoin="round">
  <path d="m97.8957 29.104v47.6249h10.5833a5.29166 5.29166 0 0 0 5.29166-5.29166v-42.3333z" fill="#a05a2c" stroke="#502d16" stroke-width=".528999"/>
  <g stroke-width=".529167">
   <rect transform="rotate(90)" x="23.812" y="-150.812" width="5.29167" height="26.4583" fill="#fff" stroke="#917c6f"/>
   <rect transform="rotate(90)" x="25.135" y="-150.812" width="2.64583" height="26.4583" fill="#6f7c91" stroke="#373e48"/>
   <path d="m150.813 52.9163v-26.4583h-26.4583a26.4583 26.4583 0 0 0 26.4583 26.4583z" fill="none" stroke="#373e48"/>
  </g>
  <rect x="95.25" y="29.1038" width="13.2292" height="47.625" fill="#c87137" stroke="#502d16" stroke-width=".529"/>
  <g stroke-width=".529167">
   <rect x="161.396" y="129.645" width="100.542" height="5.29167" fill="#333" stroke="#000"/>
   <rect transform="scale(1,-1)" x="156.104" y="-129.645" width="5.29167" height="26.4583" fill="#fff" stroke="#917c6f"/>
   <rect transform="scale(1,-1)" x="157.427" y="-129.645" width="2.64583" height="26.4583" fill="#6f7c91" stroke="#373e48"/>
   <path d="m185.208 129.646h-26.4583v-26.4583a26.4583 26.4583 0 0 1 26.4583 26.4583z" fill="none" stroke="#373e48"/>
   <rect transform="scale(1,-1)" x="156.104" y="-76.7288" width="5.29167" height="26.4583" fill="#fff" stroke="#917c6f"/>
   <rect transform="scale(1,-1)" x="157.427" y="-76.7288" width="2.64583" height="26.4583" fill="#6f7c91" stroke="#373e48"/>
   <path d="m177.589 81.7399c-8e-4 -1.16925-0.89876-2.13303-1.88929-2.53371-0.99052-0.40067-1.37949-1.35253-1.38079-2.32027 6e-5 -0.0527 3e-3 -0.10499 6e-3 -0.15709h-12.9294v5.29167h16.1737c0.01-0.0929 0.0196-0.18591 0.0196-0.2806z" fill="#333" stroke="#000"/>
   <path d="m185.208 76.7288h-26.4583v-26.4583a26.4583 26.4583 0 0 1 26.4583 26.4583z" fill="none" stroke="#373e48"/>
   <rect x="126.339" y="72.0986" width="15.875" height="15.875" fill="#f0f0f0" stroke="#000"/>
  </g>
 </g>
 <circle cx="131.223" cy="75.1515" r="1.22115"/>
 <path d="m130.002 76.9832a1.22115 1.22115 0 0 0-1.22116 1.22115v3.66346h1.22116v4.88462h2.4423v-4.88462h1.22116v-3.66346a1.22115 1.22115 0 0 0-1.22116-1.22115z"/>
 <circle cx="137.329" cy="75.1515" r="1.22115"/>
 <path d="m137.329 76.9832a1.83173 1.52645 0 0 0-1.81694 1.34446l-1e-3 -2.44e-4 -4e-3 0.02671a1.83173 1.52645 0 0 0-9.7e-4 0.0053l-0.61941 4.72959h1.22143v3.66346h2.4423v-3.66346h1.22092l-0.62369-4.76155-2e-3 2.45e-4a1.83173 1.52645 0 0 0-1.81599-1.34447z"/>
 <path d="m151.474 76.0674v2.64583h-5.29167v2.64583h5.29167v2.64583l3.96875-3.96875z" fill="#f0f0f0" stroke="#000" stroke-linejoin="round" stroke-width=".529167"/>
 <g fill="#333" stroke="#000" stroke-linejoin="round" stroke-width=".529167">
  <path d="m28.8236 113.452c-1.16924 7.9e-4 -2.13302 0.89876-2.5337 1.88929-0.400672 0.99052-1.35253 1.37949-2.32027 1.38079-0.05272-6e-5 -0.10499-3e-3 -0.157097-6e-3v12.9295h5.29167v-16.1737c-0.09286-0.01-0.18591-0.0196-0.280604-0.0196z"/>
  <path d="m60.5356 24.093c7.9e-4 1.16925 0.89876 2.13303 1.88929 2.5337 0.99052 0.40067 1.37949 1.35253 1.38079 2.32027-6e-5 0.05272-3e-3 0.10499-6e-3 0.157097h12.9294v-5.29167h-16.1737c-0.01 0.0929-0.0196 0.18591-0.0196 0.2806z"/>
  <path d="m177.589 28.8232c-7.9e-4 -1.16925-0.89876-2.13303-1.88929-2.53371-0.99052-0.40067-1.37949-1.35253-1.38079-2.32027 6e-5 -0.0527 3e-3 -0.10499 6e-3 -0.15709h-12.9294v5.29167h16.1737c0.01-0.0929 0.0196-0.18591 0.0196-0.2806z"/>
  <path d="m266.949 113.452c-1.16925 7.9e-4 -2.13303 0.89876-2.5337 1.88929-0.40067 0.99052-1.35253 1.37949-2.32027 1.38079-0.0527-6e-5 -0.10499-3e-3 -0.15709-6e-3v12.9294h5.29166v-16.1737c-0.0929-0.01-0.18591-0.0196-0.2806-0.0196z"/>
 </g>
 <rect transform="rotate(90)" x="129.645" y="-92.6041" width="5.29167" height="52.9166" fill="#fff" stroke="#917c6f" stroke-linejoin="round" stroke-width=".529167"/>
 <g stroke="#373e48" stroke-linejoin="round" stroke-width=".529167">
  <rect transform="rotate(90)" x="130.968" y="-92.6041" width="2.64583" height="52.9167" fill="#6f7c91"/>
  <path d="m66.1458 132.291h-26.4583v26.4583a26.4583 26.4583 0 0 0 26.4583-26.4583z" fill="none"/>
  <path d="m92.6041 158.75v-26.4583h-26.4583a26.4583 26.4583 0 0 0 26.4583 26.4583z" fill="none"/>
 </g>
 <g stroke="#000" stroke-linejoin="round">
  <rect x="58.2083" y="153.458" width="15.875" height="15.875" fill="#f0f0f0" stroke-width=".529167"/>
  <path d="m61.8718 157.121v10.9904h8.54808v-10.9904zm1.22115 0.61058a0.610577 0.610577 0 0 1 0.610576 0.61057 0.610577 0.610577 0 0 1-0.610576 0.61058 0.610577 0.610577 0 0 1-0.610577-0.61058 0.610577 0.610577 0 0 1 0.610577-0.61057zm1.83173 0a0.610577 0.610577 0 0 1 0.610577 0.61057 0.610577 0.610577 0 0 1-0.610577 0.61058 0.610577 0.610577 0 0 1-0.610577-0.61058 0.610577 0.610577 0 0 1 0.610577-0.61057zm1.83173 0a0.610577 0.610577 0 0 1 0.610577 0.61057 0.610577 0.610577 0 0 1-0.610577 0.61058 0.610577 0.610577 0 0 1-0.610576-0.61058 0.610577 0.610577 0 0 1 0.610576-0.61057zm1.83173 0h0.610577a0.610577 0.610577 0 0 1 0.610576 0.61057 0.610577 0.610577 0 0 1-0.610576 0.61058h-0.610577a0.610577 0.610577 0 0 1-0.610577-0.61058 0.610577 0.610577 0 0 1 0.610577-0.61057zm-5.49519 2.19784h6.10577v0.48893h-6.10577zm0 0.85504h6.10577v6.10577h-6.10577z" stroke-width=".529"/>
  <path d="m62.1771 144.198h2.64584v5.29167h2.64583v-5.29167h2.64583l-3.96875-3.96875z" fill="#f0f0f0" stroke-width=".529167"/>
 </g>
 <g fill="#a05a2c" stroke="#502d16" stroke-width=".529167">
  <path d="m207.697 325.411c-0.0144-1.45035-1.20844-2.41436-2.64428-2.61948l-9.26042-1.32291c-0.73062-1e-5 -1.32292 2.96144-1.32292 6.61458s0.5923 6.61459 1.32292 6.61458l9.26042-1.32291c1.43604-0.20515 2.63035-1.16894 2.6448-2.61948 0-2.58367-5.3e-4 -2.72127-5.3e-4 -5.34438z" stroke-linejoin="round"/>
  <g transform="translate(0,126.333)">
   <path d="m211.006 195.135s0.73588 2.66815 0.73588 6.61458-0.73588 6.61458-0.73588 6.61458l-1.32289-1.32291s0.41296-2.2745 0.41296-5.29167-0.41298-5.29167-0.41298-5.29167z" stroke-linejoin="round"/>
   <path d="m210.045 199.889-2.34797 0.53824z"/>
   <path d="m209.764 196.972-2.11238 1.64827z"/>
   <path d="m210.045 203.611-2.34797-0.53824z"/>
   <path d="m209.764 206.528-2.11238-1.64827z"/>
  </g>
  <path d="m162.72 330.755c0.0145 1.45035 1.20844 2.41436 2.64428 2.61948l9.26042 1.32291c0.73062 1e-5 1.32292-2.96144 1.32292-6.61458s-0.5923-6.61459-1.32292-6.61458l-9.26042 1.32291c-1.43604 0.20515-2.63035 1.16894-2.6448 2.61948 0 2.58367 5.3e-4 2.72127 5.3e-4 5.34438z" stroke-linejoin="round"/>
  <g transform="translate(0,126.333)">
   <path d="m159.411 208.365s-0.73588-2.66815-0.73588-6.61458 0.73588-6.61458 0.73588-6.61458l1.32289 1.32291s-0.41296 2.2745-0.41296 5.29167 0.41298 5.29167 0.41298 5.29167z" stroke-linejoin="round"/>
   <path d="m160.372 203.611 2.34797-0.53824z"/>
   <path d="m160.653 206.528 2.11238-1.64827z"/>
   <path d="m160.372 199.889 2.34797 0.53824z"/>
   <path d="m160.653 196.972 2.11238 1.64827z"/>
  </g>
  <path d="m182.536 305.594c-1.45035 0.0145-2.41436 1.20844-2.61948 2.64428l-1.32291 9.26042c-1e-5 0.73063 2.96144 1.32292 6.61458 1.32292s6.61459-0.59229 6.61458-1.32292l-1.32291-9.26042c-0.20515-1.43604-1.16894-2.63035-2.61948-2.6448-2.58367 0-2.72127 5.3e-4 -5.34438 5.3e-4z" stroke-linejoin="round"/>
  <g transform="translate(0,126.333)">
   <path d="m178.594 175.953s2.66815-0.73588 6.61458-0.73588 6.61458 0.73588 6.61458 0.73588l-1.32291 1.32289s-2.2745-0.41296-5.29167-0.41296-5.29167 0.41298-5.29167 0.41298z" stroke-linejoin="round"/>
   <path d="m183.347 176.913 0.53824 2.34797z"/>
   <path d="m180.431 177.195 1.64827 2.11238z"/>
   <path d="m187.069 176.913-0.53824 2.34797z"/>
   <path d="m189.986 177.195-1.64827 2.11238z"/>
  </g>
  <path d="m187.881 350.572c1.45035-0.0145 2.41436-1.20844 2.61948-2.64428l1.32291-9.26042c1e-5 -0.73062-2.96144-1.32292-6.61458-1.32292s-6.61459 0.5923-6.61458 1.32292l1.32291 9.26042c0.20515 1.43604 1.16894 2.63035 2.61948 2.6448 2.58367 0 2.72127-5.3e-4 5.34438-5.3e-4z" stroke-linejoin="round"/>
  <g transform="translate(0,126.333)">
   <path d="m191.823 227.547s-2.66815 0.73588-6.61458 0.73588-6.61458-0.73588-6.61458-0.73588l1.32291-1.32289s2.2745 0.41296 5.29167 0.41296 5.29167-0.41298 5.29167-0.41298z" stroke-linejoin="round"/>
   <path d="m187.07 226.587-0.53824-2.34797z"/>
   <path d="m189.986 226.305-1.64827-2.11238z"/>
   <path d="m183.347 226.587 0.53824-2.34797z"/>
   <path d="m180.431 226.305 1.64827-2.11238z"/>
  </g>
 </g>
 <circle cx="185.208" cy="328.083" r="18.5208" fill="#f4e3d7" stroke="#502d16" stroke-linejoin="round" stroke-width=".529167"/>
 <g fill="#a05a2c" stroke="#502d16" stroke-width=".529167">
  <path d="m128.322 325.411c-0.0144-1.45035-1.20844-2.41436-2.64428-2.61948l-9.26042-1.32291c-0.73062-1e-5 -1.32292 2.96144-1.32292 6.61458s0.5923 6.61459 1.32292 6.61458l9.26042-1.32291c1.43604-0.20515 2.63035-1.16894 2.6448-2.61948 0-2.58367-5.3e-4 -2.72127-5.3e-4 -5.34438z" stroke-linejoin="round"/>
  <g transform="translate(0,126.333)">
   <path d="m131.631 195.135s0.73588 2.66815 0.73588 6.61458-0.73588 6.61458-0.73588 6.61458l-1.32289-1.32291s0.41296-2.2745 0.41296-5.29167-0.41298-5.29167-0.41298-5.29167z" stroke-linejoin="round"/>
   <path d="m130.67 199.889-2.34797 0.53824z"/>
   <path d="m130.389 196.972-2.11238 1.64827z"/>
   <path d="m130.67 203.611-2.34797-0.53824z"/>
   <path d="m130.389 206.528-2.11238-1.64827z"/>
  </g>
  <path d="m83.3448 330.755c0.01445 1.45035 1.20844 2.41436 2.64428 2.61948l9.26042 1.32291c0.730626 1e-5 1.32292-2.96144 1.32292-6.61458s-0.592291-6.61459-1.32292-6.61458l-9.26042 1.32291c-1.43604 0.20515-2.63035 1.16894-2.6448 2.61948 0 2.58367 5.29e-4 2.72127 5.29e-4 5.34438z" stroke-linejoin="round"/>
  <g transform="translate(0,126.333)">
   <path d="m80.036 208.365s-0.73588-2.66815-0.73588-6.61458 0.73588-6.61458 0.73588-6.61458l1.32289 1.32291s-0.41296 2.2745-0.41296 5.29167 0.41298 5.29167 0.41298 5.29167z" stroke-linejoin="round"/>
   <path d="m80.9968 203.611 2.34797-0.53824z"/>
   <path d="m81.2781 206.528 2.11238-1.64827z"/>
   <path d="m80.9968 199.889 2.34797 0.53824z"/>
   <path d="m81.2781 196.972 2.11238 1.64827z"/>
  </g>
  <path d="m103.161 305.594c-1.45035 0.0145-2.41436 1.20844-2.61948 2.64428l-1.32292 9.26042c-8e-6 0.73063 2.96144 1.32292 6.61458 1.32292s6.61459-0.59229 6.61458-1.32292l-1.32291-9.26042c-0.20515-1.43604-1.16894-2.63035-2.61948-2.6448-2.58367 0-2.72127 5.3e-4 -5.34438 5.3e-4z" stroke-linejoin="round"/>
  <g transform="translate(0,126.333)">
   <path d="m99.2188 175.953s2.66815-0.73588 6.61458-0.73588 6.61458 0.73588 6.61458 0.73588l-1.32291 1.32289s-2.2745-0.41296-5.29167-0.41296-5.29167 0.41298-5.29167 0.41298z" stroke-linejoin="round"/>
   <path d="m103.972 176.913 0.53824 2.34797z"/>
   <path d="m101.056 177.195 1.64827 2.11238z"/>
   <path d="m107.694 176.913-0.53824 2.34797z"/>
   <path d="m110.611 177.195-1.64827 2.11238z"/>
  </g>
  <path d="m108.506 350.572c1.45035-0.0145 2.41436-1.20844 2.61948-2.64428l1.32291-9.26042c1e-5 -0.73062-2.96144-1.32292-6.61458-1.32292s-6.61459 0.5923-6.61458 1.32292l1.32291 9.26042c0.20515 1.43604 1.16894 2.63035 2.61948 2.6448 2.58367 0 2.72127-5.3e-4 5.34438-5.3e-4z" stroke-linejoin="round"/>
  <g transform="translate(0,126.333)">
   <path d="m112.448 227.547s-2.66815 0.73588-6.61458 0.73588-6.61458-0.73588-6.61458-0.73588l1.32291-1.32289s2.2745 0.41296 5.29167 0.41296 5.29167-0.41298 5.29167-0.41298z" stroke-linejoin="round"/>
   <path d="m107.694 226.587-0.53824-2.34797z"/>
   <path d="m110.611 226.305-1.64827-2.11238z"/>
   <path d="m103.972 226.587 0.53824-2.34797z"/>
   <path d="m101.056 226.305 1.64827-2.11238z"/>
  </g>
 </g>
 <circle cx="105.833" cy="328.083" r="18.5208" fill="#f4e3d7" stroke="#502d16" stroke-linejoin="round" stroke-width=".529167"/>
 <g fill="#a05a2c" stroke="#502d16" stroke-width=".529167">
  <path d="m80.1581 244.146c-1.03577-1.01534-2.56171-0.85271-3.72204 0.0175l-7.48355 5.61266c-0.516636 0.51662 1.15861 3.0295 3.74177 5.61266s5.09604 4.25841 5.61266 3.74177l5.61266-7.48355c0.870373-1.16049 1.03338-2.68649 0.0179-3.7224-1.82693-1.82693-1.9246-1.92385-3.77942-3.77867z" stroke-linejoin="round"/>
  <g transform="translate(0,126.333)">
   <path d="m79.7101 112.686s2.40701 1.36632 5.19756 4.15687 4.15687 5.19756 4.15687 5.19756l-1.87086-1e-5s-1.31631-1.90032-3.44977-4.03379c-2.13346-2.13346-4.0338-3.44975-4.0338-3.44975z" stroke-linejoin="round"/>
   <path d="m82.3919 116.726-1.27967 2.04086z"/>
   <path d="m80.1308 114.863-0.328175 2.65918z"/>
   <path d="m85.024 119.358-2.04086 1.27967z"/>
   <path d="m86.8873 121.619-2.65918 0.32818z"/>
  </g>
  <path d="m52.1335 279.728c1.03577 1.01534 2.56171 0.85271 3.72204-0.0175l7.48355-5.61266c0.516636-0.51662-1.15861-3.0295-3.74177-5.61266s-5.09604-4.25841-5.61266-3.74177l-5.61266 7.48355c-0.870373 1.16049-1.03338 2.68649-0.0179 3.7224 1.82693 1.82693 1.9246 1.92385 3.77942 3.77867z" stroke-linejoin="round"/>
  <g transform="translate(0,126.333)">
   <path d="m52.5816 158.523s-2.40701-1.36632-5.19756-4.15687c-2.79055-2.79054-4.15687-5.19756-4.15687-5.19756l1.87086 2e-5s1.31631 1.90032 3.44977 4.03378 4.0338 3.44975 4.0338 3.44975z" stroke-linejoin="round"/>
   <path d="m49.8998 154.482 1.27967-2.04086z"/>
   <path d="m52.1609 156.346 0.328175-2.65918z"/>
   <path d="m47.2677 151.85 2.04086-1.27967z"/>
   <path d="m45.4044 149.589 2.65918-0.32817z"/>
  </g>
  <path d="m48.3545 247.925c-1.01534 1.03577-0.852711 2.56171 0.01754 3.72204l5.61266 7.48355c0.516624 0.51664 3.0295-1.15861 5.61266-3.74177s4.25841-5.09604 3.74177-5.61266l-7.48355-5.61266c-1.16049-0.87038-2.6865-1.03338-3.72241-0.0179-1.82693 1.82693-1.92385 1.9246-3.77867 3.77942z" stroke-linejoin="round"/>
  <g transform="translate(0,126.333)">
   <path d="m43.2272 122.04s1.36632-2.40701 4.15687-5.19756c2.79055-2.79054 5.19756-4.15687 5.19756-4.15687l-1.4e-5 1.87087s-1.90032 1.31631-4.03378 3.44977-3.44975 4.03379-3.44975 4.03379z" stroke-linejoin="round"/>
   <path d="m47.2677 119.358 2.04086 1.27967z"/>
   <path d="m45.4044 121.619 2.65918 0.32818z"/>
   <path d="m49.8998 116.726 1.27967 2.04086z"/>
   <path d="m52.1609 114.863 0.328175 2.65918z"/>
  </g>
  <path d="m83.9371 275.949c1.01534-1.03577 0.852711-2.56171-0.01754-3.72204l-5.61266-7.48355c-0.516624-0.51663-3.0295 1.15862-5.61266 3.74178s-4.25841 5.09603-3.74177 5.61266l7.48355 5.61266c1.16049 0.87037 2.6865 1.03338 3.72241 0.0179 1.82693-1.82693 1.92385-1.9246 3.77867-3.77942z" stroke-linejoin="round"/>
  <g transform="translate(0,126.333)">
   <path d="m89.0645 149.168s-1.36632 2.40701-4.15687 5.19756-5.19756 4.15687-5.19756 4.15687l1.4e-5 -1.87086s1.90032-1.31631 4.03378-3.44977 3.44975-4.0338 3.44975-4.0338z" stroke-linejoin="round"/>
   <path d="m85.0239 151.85-2.04086-1.27967z"/>
   <path d="m86.8872 149.589-2.65918-0.32818z"/>
   <path d="m82.3919 154.482-1.27967-2.04086z"/>
   <path d="m80.1307 156.346-0.328175-2.65918z"/>
  </g>
 </g>
 <circle transform="rotate(-45)" cx="-138.445" cy="231.99" r="18.5208" fill="#f4e3d7" stroke="#502d16" stroke-linejoin="round" stroke-width=".529167"/>
 <g fill="#a05a2c" stroke="#502d16" stroke-width=".529167">
  <path d="m159.533 244.146c-1.03577-1.01534-2.56171-0.85271-3.72204 0.0175l-7.48355 5.61266c-0.51663 0.51662 1.15862 3.0295 3.74178 5.61266s5.09603 4.25841 5.61266 3.74177l5.61266-7.48355c0.87037-1.16049 1.03338-2.68649 0.0179-3.7224-1.82693-1.82693-1.9246-1.92385-3.77942-3.77867z" stroke-linejoin="round"/>
  <g transform="translate(0,126.333)">
   <path d="m159.085 112.686s2.40701 1.36632 5.19756 4.15687 4.15687 5.19756 4.15687 5.19756l-1.87086-1e-5s-1.31631-1.90032-3.44977-4.03379c-2.13346-2.13346-4.0338-3.44975-4.0338-3.44975z" stroke-linejoin="round"/>
   <path d="m161.767 116.726-1.27967 2.04086z"/>
   <path d="m159.506 114.863-0.32817 2.65918z"/>
   <path d="m164.399 119.358-2.04086 1.27967z"/>
   <path d="m166.262 121.619-2.65918 0.32818z"/>
  </g>
  <path d="m131.509 279.728c1.03577 1.01534 2.56171 0.85271 3.72204-0.0175l7.48355-5.61266c0.51664-0.51662-1.15861-3.0295-3.74177-5.61266s-5.09604-4.25841-5.61266-3.74177l-5.61266 7.48355c-0.87037 1.16049-1.03338 2.68649-0.0179 3.7224 1.82693 1.82693 1.9246 1.92385 3.77942 3.77867z" stroke-linejoin="round"/>
  <g transform="translate(0,126.333)">
   <path d="m131.957 158.523s-2.40702-1.36633-5.19757-4.15687c-2.79054-2.79055-4.15686-5.19756-4.15686-5.19756l1.87086 1e-5s1.31631 1.90032 3.44977 4.03378 4.0338 3.44976 4.0338 3.44976z" stroke-linejoin="round"/>
   <path d="m129.275 154.482 1.27967-2.04086z"/>
   <path d="m131.536 156.346 0.32817-2.65918z"/>
   <path d="m126.643 151.85 2.04086-1.27968z"/>
   <path d="m124.779 149.589 2.65918-0.32818z"/>
  </g>
  <path d="m127.73 247.925c-1.01534 1.03577-0.85271 2.56171 0.0175 3.72204l5.61266 7.48355c0.51662 0.51664 3.0295-1.15861 5.61266-3.74177s4.25841-5.09604 3.74177-5.61266l-7.48355-5.61266c-1.16049-0.87038-2.68649-1.03338-3.7224-0.0179-1.82693 1.82693-1.92385 1.9246-3.77867 3.77942z" stroke-linejoin="round"/>
  <g transform="translate(0,126.333)">
   <path d="m122.602 122.04s1.36632-2.40701 4.15686-5.19756c2.79055-2.79054 5.19756-4.15686 5.19756-4.15686l-1e-5 1.87086s-1.90032 1.31631-4.03378 3.44977-3.44976 4.03379-3.44976 4.03379z" stroke-linejoin="round"/>
   <path d="m126.643 119.358 2.04086 1.27967z"/>
   <path d="m124.779 121.619 2.65918 0.32818z"/>
   <path d="m129.275 116.726 1.27967 2.04086z"/>
   <path d="m131.536 114.863 0.32817 2.65918z"/>
  </g>
  <path d="m163.312 275.949c1.01534-1.03577 0.85271-2.56171-0.0175-3.72204l-5.61266-7.48355c-0.51662-0.51663-3.0295 1.15862-5.61266 3.74178s-4.25841 5.09603-3.74177 5.61266l7.48355 5.61266c1.16049 0.87037 2.68649 1.03338 3.7224 0.0179 1.82693-1.82693 1.92385-1.9246 3.77867-3.77942z" stroke-linejoin="round"/>
  <g transform="translate(0,126.333)">
   <path d="m168.439 149.168s-1.36632 2.40701-4.15687 5.19756c-2.79055 2.79054-5.19756 4.15687-5.19756 4.15687l2e-5 -1.87087s1.90032-1.31631 4.03378-3.44977 3.44975-4.03379 3.44975-4.03379z" stroke-linejoin="round"/>
   <path d="m164.399 151.85-2.04086-1.27967z"/>
   <path d="m166.262 149.589-2.65918-0.32818z"/>
   <path d="m161.767 154.482-1.27967-2.04086z"/>
   <path d="m159.506 156.346-0.32817-2.65918z"/>
  </g>
 </g>
 <circle transform="rotate(-45)" cx="-82.3188" cy="288.116" r="18.5208" fill="#f4e3d7" stroke="#502d16" stroke-linejoin="round" stroke-width=".529167"/>
 <g fill="#a05a2c" stroke="#502d16" stroke-width=".529167">
  <path d="m238.908 244.146c-1.03577-1.01534-2.56171-0.85271-3.72204 0.0175l-7.48355 5.61266c-0.51663 0.51662 1.15862 3.0295 3.74178 5.61266s5.09603 4.25841 5.61266 3.74177l5.61266-7.48355c0.87037-1.16049 1.03338-2.68649 0.0179-3.7224-1.82693-1.82693-1.9246-1.92385-3.77942-3.77867z" stroke-linejoin="round"/>
  <g transform="translate(0,126.333)">
   <path d="m238.46 112.686s2.40701 1.36632 5.19756 4.15687 4.15687 5.19756 4.15687 5.19756l-1.87086-1e-5s-1.31631-1.90032-3.44977-4.03379c-2.13346-2.13346-4.0338-3.44975-4.0338-3.44975z" stroke-linejoin="round"/>
   <path d="m241.142 116.726-1.27967 2.04086z"/>
   <path d="m238.881 114.863-0.32818 2.65918z"/>
   <path d="m243.774 119.358-2.04086 1.27967z"/>
   <path d="m245.637 121.619-2.65918 0.32818z"/>
  </g>
  <path d="m210.884 279.728c1.03577 1.01534 2.56171 0.85271 3.72204-0.0175l7.48355-5.61266c0.51663-0.51662-1.15862-3.0295-3.74178-5.61266s-5.09603-4.25841-5.61266-3.74177l-5.61266 7.48355c-0.87037 1.16049-1.03338 2.68649-0.0179 3.7224 1.82693 1.82693 1.9246 1.92385 3.77942 3.77867z" stroke-linejoin="round"/>
  <g transform="translate(0,126.333)">
   <path d="m211.332 158.523s-2.40701-1.36632-5.19756-4.15687c-2.79054-2.79055-4.15686-5.19756-4.15686-5.19756l1.87086 1e-5s1.31631 1.90032 3.44977 4.03378c2.13346 2.13347 4.03379 3.44976 4.03379 3.44976z" stroke-linejoin="round"/>
   <path d="m208.65 154.482 1.27967-2.04085z"/>
   <path d="m210.911 156.346 0.32817-2.65919z"/>
   <path d="m206.018 151.85 2.04086-1.27968z"/>
   <path d="m204.154 149.589 2.65918-0.32818z"/>
  </g>
  <path d="m207.105 247.925c-1.01534 1.03577-0.85271 2.56171 0.0175 3.72204l5.61266 7.48355c0.51662 0.51664 3.0295-1.15861 5.61266-3.74177s4.25841-5.09604 3.74177-5.61266l-7.48355-5.61266c-1.16049-0.87037-2.68649-1.03338-3.7224-0.0179-1.82693 1.82693-1.92385 1.9246-3.77867 3.77942z" stroke-linejoin="round"/>
  <g transform="translate(0,126.333)">
   <path d="m201.977 122.04s1.36633-2.40702 4.15687-5.19756c2.79055-2.79055 5.19756-4.15687 5.19756-4.15687l-1e-5 1.87086s-1.90032 1.31631-4.03378 3.44977-3.44976 4.0338-3.44976 4.0338z" stroke-linejoin="round"/>
   <path d="m206.018 119.358 2.04086 1.27967z"/>
   <path d="m204.154 121.619 2.65918 0.32817z"/>
   <path d="m208.65 116.726 1.27967 2.04086z"/>
   <path d="m210.911 114.863 0.32818 2.65918z"/>
  </g>
  <path d="m242.687 275.949c1.01534-1.03577 0.85271-2.56171-0.0175-3.72204l-5.61266-7.48355c-0.51662-0.51663-3.0295 1.15862-5.61266 3.74178s-4.25841 5.09603-3.74177 5.61266l7.48355 5.61266c1.16049 0.87037 2.68649 1.03338 3.7224 0.0179 1.82693-1.82693 1.92385-1.9246 3.77867-3.77942z" stroke-linejoin="round"/>
  <g transform="translate(0,126.333)">
   <path d="m247.814 149.168s-1.36632 2.40701-4.15687 5.19756c-2.79055 2.79054-5.19756 4.15686-5.19756 4.15686l2e-5 -1.87086s1.90032-1.31631 4.03378-3.44977 3.44975-4.03379 3.44975-4.03379z" stroke-linejoin="round"/>
   <path d="m243.774 151.85-2.04086-1.27967z"/>
   <path d="m245.637 149.589-2.65918-0.32817z"/>
   <path d="m241.142 154.482-1.27967-2.04086z"/>
   <path d="m238.881 156.346-0.32818-2.65918z"/>
  </g>
 </g>
 <circle transform="rotate(-45)" cx="-26.1922" cy="344.243" r="18.5208" fill="#f4e3d7" stroke="#502d16" stroke-linejoin="round" stroke-width=".529167"/>
 <g fill="#a05a2c" stroke="#502d16" stroke-width=".529167">
  <g transform="translate(0,126.333)">
   <path d="m239.019 188.186s1.36632-2.40701 4.15687-5.19756 5.19756-4.15687 5.19756-4.15687l-1e-5 1.87087s-1.90033 1.3163-4.03379 3.44976c-2.13346 2.13347-3.44975 4.0338-3.44975 4.0338z" stroke-linejoin="round"/>
   <path d="m243.059 185.504 2.04086 1.27967z"/>
   <path d="m241.196 187.765 2.65918 0.32818z"/>
   <path d="m245.691 182.872 1.27967 2.04086z"/>
   <path d="m247.953 181.009 0.32818 2.65918z"/>
   <path d="m248.373 224.669s-2.40701-1.36632-5.19756-4.15687-4.15687-5.19756-4.15687-5.19756l1.87086 1e-5s1.31631 1.90033 3.44977 4.03379 4.0338 3.44975 4.0338 3.44975z" stroke-linejoin="round"/>
   <path d="m245.691 220.628 1.27967-2.04086z"/>
   <path d="m247.953 222.491 0.32818-2.65918z"/>
   <path d="m243.059 217.996 2.04086-1.27967z"/>
   <path d="m241.196 215.735 2.65918-0.32818z"/>
  </g>
  <path d="m46.8954 314.071c1.01534 1.03577 0.852711 2.56171-0.01754 3.72204l-5.61266 7.48355c-0.516624 0.51663-3.0295-1.15862-5.61266-3.74178s-4.25841-5.09603-3.74177-5.61266l7.48355-5.61266c1.16049-0.87037 2.6865-1.03338 3.72241-0.0179 1.82693 1.82693 1.92385 1.9246 3.77867 3.77942z" stroke-linejoin="round"/>
  <g transform="translate(0,126.333)">
   <path d="m52.0228 188.186s-1.36632-2.40701-4.15687-5.19756-5.19756-4.15687-5.19756-4.15687l1.4e-5 1.87087s1.90032 1.3163 4.03378 3.44976c2.13346 2.13347 3.44976 4.0338 3.44976 4.0338z" stroke-linejoin="round"/>
   <path d="m47.9823 185.504-2.04086 1.27967z"/>
   <path d="m49.8456 187.765-2.65918 0.32818z"/>
   <path d="m45.3502 182.872-1.27967 2.04086z"/>
   <path d="m43.089 181.009-0.328175 2.65918z"/>
  </g>
  <path d="m43.1164 345.874c-1.03577 1.01534-2.56171 0.85271-3.72204-0.0175l-7.48355-5.61266c-0.516636-0.51662 1.15861-3.0295 3.74177-5.61266s5.09604-4.25841 5.61266-3.74177l5.61266 7.48355c0.870373 1.16049 1.03338 2.68649 0.0179 3.7224-1.82693 1.82693-1.9246 1.92385-3.77942 3.77867z" stroke-linejoin="round"/>
  <g transform="translate(0,126.333)">
   <path d="m42.6684 224.669s2.40701-1.36633 5.19756-4.15687c2.79055-2.79055 4.15687-5.19756 4.15687-5.19756l-1.87086 1e-5s-1.31631 1.90032-3.44977 4.03378c-2.13346 2.13347-4.0338 3.44976-4.0338 3.44976z" stroke-linejoin="round"/>
   <path d="m45.3502 220.628-1.27967-2.04086z"/>
   <path d="m43.0891 222.491-0.328175-2.65918z"/>
   <path d="m47.9823 217.996-2.04086-1.27968z"/>
   <path d="m49.8456 215.735-2.65918-0.32818z"/>
  </g>
 </g>
 <path d="m47.6229 327.813a18.5208 18.5208 0 0 1-5.42241 13.3666 18.5208 18.5208 0 0 1-13.0964 5.41259v-37.0179a18.5208 18.5208 0 0 1 13.0964 5.41259 18.5208 18.5208 0 0 1 5.42241 12.8261z" fill="#f4e3d7" stroke="#502d16" stroke-linejoin="round" stroke-width=".529167"/>
 <g fill="#a05a2c" stroke="#502d16" stroke-width=".529167">
  <path d="m207.697 169.307c-0.0144-1.45035-1.20844-2.41436-2.64428-2.61948l-9.26042-1.32292c-0.73062-1e-5 -1.32292 2.96144-1.32292 6.61458s0.5923 6.61459 1.32292 6.61458l9.26042-1.32292c1.43604-0.20515 2.63035-1.16893 2.6448-2.61948 0-2.58367-5.3e-4 -2.72127-5.3e-4 -5.34438z" stroke-linejoin="round"/>
  <g transform="translate(0,126.333)">
   <path d="m211.006 39.0313s0.73588 2.66815 0.73588 6.61458-0.73588 6.61458-0.73588 6.61458l-1.32289-1.32291s0.41296-2.2745 0.41296-5.29167-0.41298-5.29167-0.41298-5.29167z" stroke-linejoin="round"/>
   <path d="m210.045 43.7847-2.34797 0.53824z"/>
   <path d="m209.764 40.8683-2.11238 1.64827z"/>
   <path d="m210.045 47.507-2.34797-0.53824z"/>
   <path d="m209.764 50.4234-2.11238-1.64827z"/>
  </g>
  <path d="m162.72 174.651c0.0145 1.45035 1.20845 2.41436 2.64429 2.61948l9.26041 1.32292c0.73063 1e-5 1.32292-2.96144 1.32292-6.61458s-0.59229-6.61459-1.32292-6.61458l-9.26041 1.32292c-1.43604 0.20515-2.63035 1.16893-2.6448 2.61948 0 2.58367 5.3e-4 2.72127 5.3e-4 5.34438z" stroke-linejoin="round"/>
  <g transform="translate(0,126.333)">
   <path d="m159.411 52.2604s-0.73589-2.66815-0.73589-6.61458 0.73589-6.61458 0.73589-6.61458l1.32288 1.32291s-0.41296 2.2745-0.41296 5.29167 0.41298 5.29167 0.41298 5.29167z" stroke-linejoin="round"/>
   <path d="m160.372 47.507 2.34798-0.53824z"/>
   <path d="m160.653 50.4234 2.11237-1.64827z"/>
   <path d="m160.372 43.7847 2.34798 0.53824z"/>
   <path d="m160.653 40.8683 2.11237 1.64827z"/>
  </g>
  <path d="m182.536 149.49c-1.45035 0.0145-2.41436 1.20844-2.61948 2.64428l-1.32291 9.26042c-1e-5 0.73063 2.96144 1.32292 6.61458 1.32292s6.61459-0.59229 6.61458-1.32292l-1.32291-9.26042c-0.20515-1.43604-1.16894-2.63035-2.61948-2.6448-2.58367 0-2.72127 5.3e-4 -5.34438 5.3e-4z" stroke-linejoin="round"/>
  <g transform="translate(0,126.333)">
   <path d="m178.594 19.8485s2.66815-0.73588 6.61458-0.73588 6.61458 0.73588 6.61458 0.73588l-1.32291 1.32289s-2.2745-0.41296-5.29167-0.41296-5.29167 0.41298-5.29167 0.41298z" stroke-linejoin="round"/>
   <path d="m183.347 20.8093 0.53824 2.34797z"/>
   <path d="m180.431 21.0906 1.64827 2.11238z"/>
   <path d="m187.069 20.8093-0.53824 2.34797z"/>
   <path d="m189.986 21.0906-1.64827 2.11238z"/>
  </g>
  <path d="m187.881 194.467c1.45035-0.0145 2.41436-1.20844 2.61948-2.64428l1.32291-9.26042c1e-5 -0.73063-2.96144-1.32292-6.61458-1.32292s-6.61459 0.59229-6.61458 1.32292l1.32291 9.26042c0.20515 1.43604 1.16894 2.63035 2.61948 2.6448 2.58367 0 2.72127-5.3e-4 5.34438-5.3e-4z" stroke-linejoin="round"/>
  <g transform="translate(0,126.333)">
   <path d="m191.823 71.4432s-2.66815 0.73588-6.61458 0.73588-6.61458-0.73588-6.61458-0.73588l1.32291-1.32289s2.2745 0.41296 5.29167 0.41296 5.29167-0.41298 5.29167-0.41298z" stroke-linejoin="round"/>
   <path d="m187.07 70.4824-0.53824-2.34797z"/>
   <path d="m189.986 70.2011-1.64827-2.11238z"/>
   <path d="m183.347 70.4824 0.53824-2.34797z"/>
   <path d="m180.431 70.2011 1.64827-2.11238z"/>
  </g>
 </g>
 <circle cx="185.208" cy="171.979" r="18.5208" fill="#f4e3d7" stroke="#502d16" stroke-linejoin="round" stroke-width=".529167"/>
 <rect transform="scale(-1)" x="-29.1042" y="-357.187" width="5.29167" height="52.9166" fill="#fff" stroke="#917c6f" stroke-linejoin="round" stroke-width=".529167"/>
 <g fill="#5fbcd3" stroke="#216778" stroke-linejoin="round" stroke-width=".529167">
  <rect transform="scale(-1)" x="-27.7812" y="-357.187" width="2.64583" height="52.9166"/>
  <rect transform="scale(-1)" x="-26.4583" y="-328.083" width="1.9251e-12" height="21.1667"/>
  <rect transform="scale(-1)" x="-26.4583" y="-354.541" width="1.9251e-12" height="21.1667"/>
 </g>
 <rect transform="scale(-1)" x="-29.1042" y="-277.812" width="5.29167" height="52.9166" fill="#fff" stroke="#917c6f" stroke-linejoin="round" stroke-width=".529167"/>
 <g fill="#5fbcd3" stroke="#216778" stroke-linejoin="round" stroke-width=".529167">
  <rect transform="scale(-1)" x="-27.7812" y="-277.812" width="2.64583" height="52.9166"/>
  <rect transform="scale(-1)" x="-26.4583" y="-248.708" width="1.9251e-12" height="21.1667"/>
  <rect transform="scale(-1)" x="-26.4583" y="-275.166" width="1.9251e-12" height="21.1667"/>
 </g>
 <rect transform="scale(-1)" x="-29.1042" y="-198.437" width="5.29167" height="52.9166" fill="#fff" stroke="#917c6f" stroke-linejoin="round" stroke-width=".529167"/>
 <g fill="#5fbcd3" stroke="#216778" stroke-linejoin="round" stroke-width=".529167">
  <rect transform="scale(-1)" x="-27.7812" y="-198.437" width="2.64583" height="52.9166"/>
  <rect transform="scale(-1)" x="-26.4583" y="-169.333" width="1.9251e-12" height="21.1667"/>
  <rect transform="scale(-1)" x="-26.4583" y="-195.791" width="1.9251e-12" height="21.1667"/>
 </g>
 <g stroke-linejoin="round" stroke-width=".529167">
  <rect transform="rotate(90)" x="23.812" y="-113.771" width="5.29167" height="26.4583" fill="#fff" stroke="#917c6f"/>
  <rect transform="rotate(90)" x="25.135" y="-113.771" width="2.64583" height="26.4583" fill="#5fbcd3" stroke="#216778"/>
  <rect transform="rotate(90)" x="26.458" y="-111.125" width="1.9251e-12" height="21.1667" fill="#5fbcd3" stroke="#216778"/>
 </g>
 <g fill="#333" stroke="#000" stroke-linejoin="round" stroke-width=".529167">
  <rect x="156.104" y="76.7288" width="5.29167" height="5.29167"/>
  <rect x="156.104" y="129.645" width="5.29167" height="5.29167"/>
  <rect x="103.188" y="76.7288" width="5.29167" height="5.29167"/>
 </g>
</svg>
