<?xml version="1.0" encoding="UTF-8"?>
<svg width="1e3" height="1300" version="1.1" viewBox="0 0 264.583 343.958" xmlns="http://www.w3.org/2000/svg" xmlns:cc="http://creativecommons.org/ns#" xmlns:dc="http://purl.org/dc/elements/1.1/" xmlns:rdf="http://www.w3.org/1999/02/22-rdf-syntax-ns#" xmlns:xlink="http://www.w3.org/1999/xlink">
 <defs>
  <linearGradient id="a" x1="168.199" x2="178.405" y1="-46.9583" y2="-46.9583" gradientTransform="matrix(.777778 0 0 2.10526 -175.801 231.151)" gradientUnits="userSpaceOnUse">
   <stop stop-color="#fff6d5" offset="0"/>
   <stop stop-color="#fff6d5" stop-opacity="0" offset="1"/>
  </linearGradient>
 </defs>
 <metadata>
  <rdf:RDF>
   <cc:Work rdf:about="">
    <dc:format>image/svg+xml</dc:format>
    <dc:type rdf:resource="http://purl.org/dc/dcmitype/StillImage"/>
    <dc:title/>
   </cc:Work>
  </rdf:RDF>
 </metadata>
 <rect x="29.1042" y="55.5626" width="206.375" height="153.458" fill="#fff6d5"/>
 <g stroke="#502d16">
  <g fill="#a05a2c">
   <path d="m161.395 63.474c-0.0145-1.45035-1.20844-2.41436-2.64428-2.61948l-9.26041-1.32292c-0.73062-8e-6 -1.32291 2.96145-1.32291 6.61458s0.59229 6.61458 1.32291 6.61458l9.26041-1.32292c1.43604-0.205147 2.63034-1.16893 2.64479-2.61948 0-2.58367-5.3e-4 -2.72126-5.3e-4 -5.34436z" stroke-linejoin="round" stroke-width=".529166"/>
   <g stroke-width=".529167">
    <path d="m164.704 59.5319s0.73588 2.66815 0.73588 6.61458-0.73588 6.61458-0.73588 6.61458l-1.32289-1.32291s0.41296-2.2745 0.41296-5.29167-0.41298-5.29167-0.41298-5.29167z" stroke-linejoin="round"/>
    <path d="m163.742 64.2849-2.34797 0.53824z"/>
    <path d="m163.462 61.3689-2.11238 1.64827z"/>
    <path d="m163.742 68.0079-2.34797-0.53824z"/>
    <path d="m163.462 70.9239-2.11238-1.64827z"/>
   </g>
   <path d="m129.647 68.8183c0.0145 1.45035 1.20844 2.41436 2.64428 2.61948l9.26041 1.32292c0.73062 8e-6 1.32291-2.96145 1.32291-6.61458s-0.59229-6.61458-1.32291-6.61458l-9.26041 1.32292c-1.43604 0.205147-2.63034 1.16893-2.64479 2.61948 0 2.58367 5.3e-4 2.72126 5.3e-4 5.34436z" stroke-linejoin="round" stroke-width=".529166"/>
   <g stroke-width=".529167">
    <path d="m126.339 72.7604s-0.73588-2.66815-0.73588-6.61458 0.73588-6.61458 0.73588-6.61458l1.32289 1.32291s-0.41296 2.2745-0.41296 5.29167 0.41298 5.29167 0.41298 5.29167z" stroke-linejoin="round"/>
    <path d="m127.3 68.0074 2.34797-0.53824z"/>
    <path d="m127.581 70.9234 2.11238-1.64827z"/>
    <path d="m127.3 64.2844 2.34797 0.53824z"/>
    <path d="m127.581 61.3684 2.11238 1.64827z"/>
   </g>
   <path d="m129.646 89.9853c0.0145 1.45035 1.20844 2.41436 2.64428 2.61948l9.26041 1.32292c0.73062 8e-6 1.32291-2.96145 1.32291-6.61458s-0.59229-6.61458-1.32291-6.61458l-9.26041 1.32292c-1.43604 0.205147-2.63034 1.16893-2.64479 2.61948 0 2.58367 5.3e-4 2.72126 5.3e-4 5.34436z" stroke-linejoin="round" stroke-width=".529166"/>
   <g stroke-width=".529167">
    <path d="m126.338 93.9274s-0.73588-2.66815-0.73588-6.61458 0.73588-6.61458 0.73588-6.61458l1.32289 1.32291s-0.41296 2.2745-0.41296 5.29167 0.41298 5.29167 0.41298 5.29167z" stroke-linejoin="round"/>
    <path d="m127.299 89.1744 2.34797-0.53824z"/>
    <path d="m127.58 92.0904 2.11238-1.64827z"/>
    <path d="m127.299 85.4514 2.34797 0.53824z"/>
    <path d="m127.58 82.5354 2.11238 1.64827z"/>
   </g>
   <path d="m161.395 84.6403c-0.0144-1.45035-1.20844-2.41436-2.64428-2.61948l-9.26041-1.32292c-0.73062-8e-6 -1.32291 2.96145-1.32291 6.61458s0.59229 6.61458 1.32291 6.61458l9.26041-1.32292c1.43604-0.205147 2.63034-1.16893 2.64479-2.61948 0-2.58367-5.3e-4 -2.72126-5.3e-4 -5.34436z" stroke-linejoin="round" stroke-width=".529166"/>
   <g stroke-width=".529167">
    <path d="m164.703 80.6982s0.73588 2.66815 0.73588 6.61458-0.73588 6.61458-0.73588 6.61458l-1.32289-1.32291s0.41296-2.2745 0.41296-5.29167-0.41298-5.29167-0.41298-5.29167z" stroke-linejoin="round"/>
    <path d="m163.742 85.4512-2.34797 0.53824z"/>
    <path d="m163.461 82.5352-2.11238 1.64827z"/>
    <path d="m163.742 89.1742-2.34797-0.53824z"/>
    <path d="m163.461 92.0902-2.11238-1.64827z"/>
   </g>
  </g>
  <path d="m134.937 55.5625a2.64583 2.64583 0 0 0-2.64583 2.64583v37.0416a2.64583 2.64583 0 0 0 2.64583 2.64583h21.1666a2.64583 2.64583 0 0 0 2.64583-2.64583v-37.0416a2.64583 2.64583 0 0 0-2.64583-2.64583z" fill="#f4e3d7" stroke-linejoin="round" stroke-width=".529166"/>
  <g fill="#a05a2c">
   <path d="m188.479 191.069c-1.03576-1.01533-2.5617-0.85271-3.72203 0.0175l-7.48354 5.61266c-0.51664 0.51662 1.15862 3.0295 3.74177 5.61265s5.09602 4.2584 5.61265 3.74177l5.61265-7.48354c0.87037-1.16049 1.03338-2.68649 0.0179-3.7224-1.82693-1.82693-1.9246-1.92385-3.77941-3.77866z" stroke-linejoin="round" stroke-width=".529166"/>
   <g stroke-width=".529167">
    <path d="m188.031 185.942s2.40701 1.36632 5.19756 4.15687 4.15687 5.19756 4.15687 5.19756l-1.87086-1e-5s-1.31631-1.90033-3.44977-4.03379-4.0338-3.44975-4.0338-3.44975z" stroke-linejoin="round"/>
    <path d="m190.713 189.982-1.27967 2.04086z"/>
    <path d="m188.452 188.119-0.32818 2.65918z"/>
    <path d="m193.345 192.615-2.04086 1.27967z"/>
    <path d="m195.208 194.875-2.65919 0.32817z"/>
   </g>
   <path d="m162.289 194.849c-1.01534 1.03576-0.85271 2.5617 0.0175 3.72203l5.61265 7.48354c0.51663 0.51664 3.02951-1.15862 5.61265-3.74177 2.58315-2.58315 4.2584-5.09602 3.74177-5.61265l-7.48353-5.61265c-1.1605-0.87037-2.6865-1.03338-3.72241-0.0179-1.82692 1.82693-1.92384 1.9246-3.77866 3.77941z" stroke-linejoin="round" stroke-width=".529166"/>
   <g stroke-width=".529167">
    <path d="m157.162 195.297s1.36632-2.40701 4.15687-5.19756c2.79054-2.79054 5.19756-4.15686 5.19756-4.15686l-2e-5 1.87086s-1.90032 1.31631-4.03378 3.44977-3.44976 4.03379-3.44976 4.03379z" stroke-linejoin="round"/>
    <path d="m161.202 192.616 2.04086 1.27968z"/>
    <path d="m159.339 194.876 2.65918 0.32817z"/>
    <path d="m163.835 189.983 1.27968 2.04085z"/>
    <path d="m166.095 188.12 0.32818 2.65918z"/>
   </g>
  </g>
  <path d="m167.919 194.054a13.2292 13.2292 0 0 0-2.61194 14.9671h23.9276a13.2292 13.2292 0 0 0-2.60681-14.9671 13.2292 13.2292 0 0 0-18.7088 0z" fill="#f4e3d7" stroke-linejoin="round" stroke-width=".529166"/>
 </g>
 <g stroke="#000" stroke-linejoin="round">
  <rect x="177.271" y="74.0834" width="15.875" height="15.875" fill="#f0f0f0" stroke-width=".529167"/>
  <path d="m180.934 77.7469v10.9904h8.54805v-10.9904zm1.22115 0.610576a0.610576 0.610576 0 0 1 0.61057 0.610575 0.610576 0.610576 0 0 1-0.61057 0.610576 0.610576 0.610576 0 0 1-0.61058-0.610576 0.610576 0.610576 0 0 1 0.61058-0.610575zm1.83172 0a0.610576 0.610576 0 0 1 0.61058 0.610575 0.610576 0.610576 0 0 1-0.61058 0.610576 0.610576 0.610576 0 0 1-0.61057-0.610576 0.610576 0.610576 0 0 1 0.61057-0.610575zm1.83173 0a0.610576 0.610576 0 0 1 0.61058 0.610575 0.610576 0.610576 0 0 1-0.61058 0.610576 0.610576 0.610576 0 0 1-0.61057-0.610576 0.610576 0.610576 0 0 1 0.61057-0.610575zm1.83173 0h0.61057a0.610576 0.610576 0 0 1 0.61058 0.610575 0.610576 0.610576 0 0 1-0.61058 0.610576h-0.61057a0.610576 0.610576 0 0 1-0.61058-0.610576 0.610576 0.610576 0 0 1 0.61058-0.610575zm-5.49518 2.19783h6.10575v0.488936h-6.10575zm0 0.855043h6.10575v6.10576h-6.10575z" stroke-width=".528999"/>
  <path d="m181.239 64.823h2.64584v5.29167h2.64583v-5.29167h2.64583l-3.96875-3.96875z" fill="#f0f0f0" stroke-width=".529167"/>
 </g>
 <g fill="#c87137" stroke="#502d16" stroke-width=".529167">
  <path d="m187.856 79.4015c0.0144 1.45035 1.20845 2.41436 2.64429 2.61948l9.26041 1.32292c0.73063 0 1.32292-2.96145 1.32292-6.61459s-0.59229-6.61459-1.32292-6.61458l-9.26041 1.32292c-1.43604 0.20514-2.63035 1.16893-2.6448 2.61947 0 2.58367 5.3e-4 2.72127 5.3e-4 5.34438z" stroke-linejoin="round"/>
  <path d="m184.547 83.3438s-0.73588-2.66815-0.73588-6.61458 0.73588-6.61458 0.73588-6.61458l1.32289 1.32291s-0.41296 2.2745-0.41296 5.29167 0.41298 5.29167 0.41298 5.29167z" stroke-linejoin="round"/>
  <path d="m185.508 78.5904 2.34797-0.53824z"/>
  <path d="m185.789 81.5068 2.11238-1.64827z"/>
  <path d="m185.508 74.8681 2.34797 0.53824z"/>
  <path d="m185.789 71.9517 2.11238 1.64827z"/>
 </g>
 <rect transform="rotate(-90)" x="-50.2709" y="26.4583" width="18.5208" height="211.667" fill="url(#a)"/>
 <rect x="26.4583" y="214.312" width="211.667" height="103.187" fill="#e3dbdb"/>
 <g stroke="#502d16">
  <g fill="#a05a2c">
   <path d="m84.6655 298.953c-0.01445-1.45034-1.20844-2.41435-2.64428-2.61947l-9.2604-1.32292c-0.730624-1e-5 -1.32292 2.96145-1.32292 6.61458 0 3.65312 0.592291 6.61457 1.32292 6.61457l9.2604-1.32291c1.43604-0.20515 2.63035-1.16893 2.6448-2.61948 0-2.58366-5.29e-4 -2.72126-5.29e-4 -5.34436z" stroke-linejoin="round" stroke-width=".529166"/>
   <g stroke-width=".529167">
    <path d="m87.974 295.011s0.73588 2.66815 0.73588 6.61458-0.73588 6.61458-0.73588 6.61458l-1.32289-1.32291s0.41296-2.2745 0.41296-5.29167-0.41298-5.29167-0.41298-5.29167z" stroke-linejoin="round"/>
    <path d="m87.013 299.764-2.34797 0.53824z"/>
    <path d="m86.732 296.848-2.11238 1.64827z"/>
    <path d="m87.013 303.487-2.34797-0.53824z"/>
    <path d="m86.732 306.403-2.11238-1.64827z"/>
   </g>
   <path d="m52.9185 304.297c0.01445 1.45034 1.20844 2.41435 2.64428 2.61947l9.2604 1.32292c0.730624 1e-5 1.32292-2.96145 1.32292-6.61458 0-3.65312-0.592291-6.61457-1.32292-6.61457l-9.2604 1.32291c-1.43604 0.20515-2.63035 1.16893-2.6448 2.61948 0 2.58366 5.29e-4 2.72126 5.29e-4 5.34436z" stroke-linejoin="round" stroke-width=".529166"/>
   <g stroke-width=".529167">
    <path d="m49.61 308.239s-0.73588-2.66815-0.73588-6.61458 0.73588-6.61458 0.73588-6.61458l1.32289 1.32291s-0.41296 2.2745-0.41296 5.29167 0.41298 5.29167 0.41298 5.29167z" stroke-linejoin="round"/>
    <path d="m50.571 303.486 2.34797-0.53824z"/>
    <path d="m50.852 306.402 2.11238-1.64827z"/>
    <path d="m50.571 299.763 2.34797 0.53824z"/>
    <path d="m50.852 296.847 2.11238 1.64827z"/>
   </g>
  </g>
  <rect x="55.563" y="288.395" width="26.4583" height="26.4583" fill="#f4e3d7" stroke-linejoin="round" stroke-width=".529167"/>
  <g fill="#a05a2c">
   <path d="m211.666 280.432c-0.0145-1.45034-1.20844-2.41435-2.64428-2.61947l-9.26041-1.32292c-0.73062-1e-5 -1.32291 2.96145-1.32291 6.61458 0 3.65312 0.59229 6.61457 1.32291 6.61457l9.26041-1.32291c1.43604-0.20515 2.63034-1.16893 2.64479-2.61948 0-2.58366-5.3e-4 -2.72126-5.3e-4 -5.34436z" stroke-linejoin="round" stroke-width=".529166"/>
   <g stroke-width=".529167">
    <path d="m214.974 276.49s0.73588 2.66815 0.73588 6.61458-0.73588 6.61458-0.73588 6.61458l-1.32289-1.32291s0.41296-2.2745 0.41296-5.29167-0.41298-5.29167-0.41298-5.29167z" stroke-linejoin="round"/>
    <path d="m214.014 281.243-2.34797 0.53824z"/>
    <path d="m213.732 278.327-2.11238 1.64827z"/>
    <path d="m214.014 284.966-2.34797-0.53824z"/>
    <path d="m213.732 287.882-2.11238-1.64827z"/>
   </g>
   <path d="m179.918 285.777c0.0144 1.45034 1.20844 2.41435 2.64428 2.61947l9.26041 1.32292c0.73062 1e-5 1.32291-2.96145 1.32291-6.61458 0-3.65312-0.59229-6.61457-1.32291-6.61457l-9.26041 1.32291c-1.43604 0.20515-2.63034 1.16893-2.64479 2.61948 0 2.58366 5.3e-4 2.72126 5.3e-4 5.34436z" stroke-linejoin="round" stroke-width=".529166"/>
   <g stroke-width=".529167">
    <path d="m176.61 289.719s-0.73588-2.66815-0.73588-6.61458 0.73588-6.61458 0.73588-6.61458l1.32289 1.32291s-0.41296 2.2745-0.41296 5.29167 0.41298 5.29167 0.41298 5.29167z" stroke-linejoin="round"/>
    <path d="m177.571 284.966 2.34797-0.53824z"/>
    <path d="m177.852 287.882 2.11238-1.64827z"/>
    <path d="m177.571 281.243 2.34797 0.53824z"/>
    <path d="m177.852 278.327 2.11238 1.64827z"/>
   </g>
   <path d="m179.917 306.944c0.0145 1.45034 1.20844 2.41435 2.64428 2.61947l9.26041 1.32292c0.73062 1e-5 1.32291-2.96145 1.32291-6.61458 0-3.65312-0.59229-6.61457-1.32291-6.61457l-9.26041 1.32291c-1.43604 0.20515-2.63034 1.16893-2.64479 2.61948 0 2.58366 5.3e-4 2.72126 5.3e-4 5.34436z" stroke-linejoin="round" stroke-width=".529166"/>
   <g stroke-width=".529167">
    <path d="m176.609 310.886s-0.73588-2.66815-0.73588-6.61458 0.73588-6.61458 0.73588-6.61458l1.32289 1.32291s-0.41296 2.2745-0.41296 5.29167 0.41298 5.29167 0.41298 5.29167z" stroke-linejoin="round"/>
    <path d="m177.57 306.133 2.34797-0.53824z"/>
    <path d="m177.851 309.049 2.11238-1.64827z"/>
    <path d="m177.57 302.41 2.34797 0.53824z"/>
    <path d="m177.851 299.494 2.11238 1.64827z"/>
   </g>
   <path d="m211.666 301.599c-0.0145-1.45034-1.20844-2.41435-2.64428-2.61947l-9.26041-1.32292c-0.73062-1e-5 -1.32291 2.96145-1.32291 6.61458 0 3.65312 0.59229 6.61457 1.32291 6.61457l9.26041-1.32291c1.43604-0.20515 2.63034-1.16893 2.64479-2.61948 0-2.58366-5.3e-4 -2.72126-5.3e-4 -5.34436z" stroke-linejoin="round" stroke-width=".529166"/>
   <g stroke-width=".529167">
    <path d="m214.974 297.656s0.73588 2.66815 0.73588 6.61458-0.73588 6.61458-0.73588 6.61458l-1.32289-1.32291s0.41296-2.2745 0.41296-5.29167-0.41298-5.29167-0.41298-5.29167z" stroke-linejoin="round"/>
    <path d="m214.013 302.41-2.34797 0.53824z"/>
    <path d="m213.732 299.494-2.11238 1.64827z"/>
    <path d="m214.013 306.132-2.34797-0.53824z"/>
    <path d="m213.732 309.048-2.11238-1.64827z"/>
   </g>
  </g>
  <rect transform="rotate(90)" x="272.521" y="-209.021" width="42.3333" height="26.4583" fill="#f4e3d7" stroke-linejoin="round" stroke-width=".529167"/>
  <g fill="#a05a2c">
   <path d="m211.666 222.224c-0.0145-1.45034-1.20844-2.41435-2.64428-2.61947l-9.26041-1.32292c-0.73062-1e-5 -1.32291 2.96145-1.32291 6.61458 0 3.65312 0.59229 6.61457 1.32291 6.61457l9.26041-1.32291c1.43604-0.20515 2.63034-1.16893 2.64479-2.61948 0-2.58366-5.3e-4 -2.72126-5.3e-4 -5.34436z" stroke-linejoin="round" stroke-width=".529166"/>
   <g stroke-width=".529167">
    <path d="m214.974 218.282s0.73588 2.66815 0.73588 6.61458-0.73588 6.61458-0.73588 6.61458l-1.32289-1.32291s0.41296-2.2745 0.41296-5.29167-0.41298-5.29167-0.41298-5.29167z" stroke-linejoin="round"/>
    <path d="m214.014 223.035-2.34797 0.53824z"/>
    <path d="m213.732 220.119-2.11238 1.64827z"/>
    <path d="m214.014 226.758-2.34797-0.53824z"/>
    <path d="m213.732 229.674-2.11238-1.64827z"/>
   </g>
   <path d="m179.918 227.568c0.0144 1.45034 1.20844 2.41435 2.64428 2.61947l9.26041 1.32292c0.73062 1e-5 1.32291-2.96145 1.32291-6.61458 0-3.65312-0.59229-6.61457-1.32291-6.61457l-9.26041 1.32291c-1.43604 0.20515-2.63034 1.16893-2.64479 2.61948 0 2.58366 5.3e-4 2.72126 5.3e-4 5.34436z" stroke-linejoin="round" stroke-width=".529166"/>
   <g stroke-width=".529167">
    <path d="m176.61 231.51s-0.73588-2.66815-0.73588-6.61458 0.73588-6.61458 0.73588-6.61458l1.32289 1.32291s-0.41296 2.2745-0.41296 5.29167 0.41298 5.29167 0.41298 5.29167z" stroke-linejoin="round"/>
    <path d="m177.571 226.757 2.34797-0.53824z"/>
    <path d="m177.852 229.673 2.11238-1.64827z"/>
    <path d="m177.571 223.034 2.34797 0.53824z"/>
    <path d="m177.852 220.118 2.11238 1.64827z"/>
   </g>
   <path d="m179.917 248.735c0.0145 1.45034 1.20844 2.41435 2.64428 2.61947l9.26041 1.32292c0.73062 1e-5 1.32291-2.96145 1.32291-6.61458 0-3.65312-0.59229-6.61457-1.32291-6.61457l-9.26041 1.32291c-1.43604 0.20515-2.63034 1.16893-2.64479 2.61948 0 2.58366 5.3e-4 2.72126 5.3e-4 5.34436z" stroke-linejoin="round" stroke-width=".529166"/>
   <g stroke-width=".529167">
    <path d="m176.609 252.677s-0.73588-2.66815-0.73588-6.61458 0.73588-6.61458 0.73588-6.61458l1.32289 1.32291s-0.41296 2.2745-0.41296 5.29167 0.41298 5.29167 0.41298 5.29167z" stroke-linejoin="round"/>
    <path d="m177.57 247.924 2.34797-0.53824z"/>
    <path d="m177.851 250.84 2.11238-1.64827z"/>
    <path d="m177.57 244.201 2.34797 0.53824z"/>
    <path d="m177.851 241.285 2.11238 1.64827z"/>
   </g>
   <path d="m211.666 243.39c-0.0145-1.45034-1.20844-2.41435-2.64428-2.61947l-9.26041-1.32292c-0.73062-1e-5 -1.32291 2.96145-1.32291 6.61458 0 3.65312 0.59229 6.61457 1.32291 6.61457l9.26041-1.32291c1.43604-0.20515 2.63034-1.16893 2.64479-2.61948 0-2.58366-5.3e-4 -2.72126-5.3e-4 -5.34436z" stroke-linejoin="round" stroke-width=".529166"/>
   <g stroke-width=".529167">
    <path d="m214.974 239.448s0.73588 2.66815 0.73588 6.61458-0.73588 6.61458-0.73588 6.61458l-1.32289-1.32291s0.41296-2.2745 0.41296-5.29167-0.41298-5.29167-0.41298-5.29167z" stroke-linejoin="round"/>
    <path d="m214.013 244.201-2.34797 0.53824z"/>
    <path d="m213.732 241.285-2.11238 1.64827z"/>
    <path d="m214.013 247.924-2.34797-0.53824z"/>
    <path d="m213.732 250.84-2.11238-1.64827z"/>
   </g>
  </g>
  <rect transform="rotate(90)" x="214.312" y="-209.021" width="42.3333" height="26.4583" fill="#f4e3d7" stroke-linejoin="round" stroke-width=".529167"/>
  <g fill="#a05a2c">
   <path d="m84.6655 224.87c-0.01445-1.45034-1.20844-2.41435-2.64428-2.61947l-9.2604-1.32292c-0.730624-1e-5 -1.32292 2.96145-1.32292 6.61458 0 3.65312 0.592291 6.61457 1.32292 6.61457l9.2604-1.32291c1.43604-0.20515 2.63035-1.16893 2.6448-2.61948 0-2.58366-5.29e-4 -2.72126-5.29e-4 -5.34436z" stroke-linejoin="round" stroke-width=".529166"/>
   <g stroke-width=".529167">
    <path d="m87.974 220.928s0.73588 2.66815 0.73588 6.61458-0.73588 6.61458-0.73588 6.61458l-1.32289-1.32291s0.41296-2.2745 0.41296-5.29167-0.41298-5.29167-0.41298-5.29167z" stroke-linejoin="round"/>
    <path d="m87.013 225.681-2.34797 0.53824z"/>
    <path d="m86.732 222.765-2.11238 1.64827z"/>
    <path d="m87.013 229.404-2.34797-0.53824z"/>
    <path d="m86.732 232.32-2.11238-1.64827z"/>
   </g>
   <path d="m52.9185 230.214c0.01445 1.45034 1.20844 2.41435 2.64428 2.61947l9.2604 1.32292c0.730624 1e-5 1.32292-2.96145 1.32292-6.61458 0-3.65312-0.592291-6.61457-1.32292-6.61457l-9.2604 1.32291c-1.43604 0.20515-2.63035 1.16893-2.6448 2.61948 0 2.58366 5.29e-4 2.72126 5.29e-4 5.34436z" stroke-linejoin="round" stroke-width=".529166"/>
   <g stroke-width=".529167">
    <path d="m49.61 234.156s-0.73588-2.66815-0.73588-6.61458 0.73588-6.61458 0.73588-6.61458l1.32289 1.32291s-0.41296 2.2745-0.41296 5.29167 0.41298 5.29167 0.41298 5.29167z" stroke-linejoin="round"/>
    <path d="m50.571 229.403 2.34797-0.53824z"/>
    <path d="m50.852 232.319 2.11238-1.64827z"/>
    <path d="m50.571 225.68 2.34797 0.53824z"/>
    <path d="m50.852 222.764 2.11238 1.64827z"/>
   </g>
  </g>
  <rect x="55.563" y="214.312" width="26.4583" height="26.4583" fill="#f4e3d7" stroke-linejoin="round" stroke-width=".529167"/>
  <g fill="#c87137" stroke-width=".529167">
   <path d="m187.856 97.9223c0.0144 1.45035 1.20845 2.41436 2.64429 2.61948l9.26041 1.32292c0.73063 0 1.32292-2.96145 1.32292-6.61459s-0.59229-6.61459-1.32292-6.61458l-9.26041 1.32292c-1.43604 0.20514-2.63035 1.16893-2.6448 2.61947 0 2.58367 5.3e-4 2.72127 5.3e-4 5.34438z" stroke-linejoin="round"/>
   <path d="m184.547 101.865s-0.73588-2.66815-0.73588-6.61458 0.73588-6.61458 0.73588-6.61458l1.32289 1.32291s-0.41296 2.2745-0.41296 5.29167 0.41298 5.29167 0.41298 5.29167z" stroke-linejoin="round"/>
   <path d="m185.508 97.1112 2.34797-0.53824z"/>
   <path d="m185.789 100.028 2.11238-1.64827z"/>
   <path d="m185.508 93.3889 2.34797 0.53824z"/>
   <path d="m185.789 90.4725 2.11238 1.64827z"/>
  </g>
 </g>
 <g stroke-linejoin="round">
  <rect x="29.1042" y="209.02" width="206.375" height="5.29167" fill="#333" stroke="#000" stroke-width=".529167"/>
  <path d="m201.083 55.5626a5.29167 5.29167 0 0 0-5.29166 5.29167v37.0417a5.29167 5.29167 0 0 0 5.29166 5.29167h10.5833v-47.625z" fill="#d38d5f" stroke="#502d16" stroke-width=".529"/>
  <rect transform="scale(-1,1)" x="-214.312" y="55.5626" width="13.2292" height="47.625" fill="#c87137" stroke="#502d16" stroke-width=".529"/>
  <g stroke-width=".529167">
   <g fill="#916f6f" stroke="#483737">
    <rect x="23.8125" y="261.937" width="5.29167" height="5.29167"/>
    <rect x="23.8125" y="314.854" width="5.29167" height="5.29167"/>
    <rect x="63.5" y="314.854" width="5.29167" height="5.29167"/>
    <rect x="103.188" y="314.854" width="5.29167" height="5.29167"/>
    <rect x="156.104" y="314.854" width="5.29167" height="5.29167"/>
    <rect x="195.792" y="314.854" width="5.29167" height="5.29167"/>
    <rect x="235.479" y="314.854" width="5.29167" height="5.29167"/>
    <rect x="235.479" y="261.937" width="5.29167" height="5.29167"/>
    <rect x="25.1354" y="267.229" width="2.64583" height="47.625"/>
    <rect x="25.1354" y="214.312" width="2.64583" height="47.625"/>
    <rect x="236.802" y="267.229" width="2.64583" height="47.625"/>
    <rect x="236.802" y="214.312" width="2.64583" height="47.625"/>
    <rect transform="rotate(-90)" x="-318.823" y="201.083" width="2.64583" height="34.3958"/>
    <rect transform="rotate(-90)" x="-318.823" y="161.396" width="2.64583" height="34.3958"/>
    <rect transform="rotate(-90)" x="-318.823" y="68.7917" width="2.64583" height="34.3958"/>
    <rect transform="rotate(-90)" x="-318.823" y="29.1042" width="2.64583" height="34.3958"/>
   </g>
   <rect transform="rotate(90)" x="209.021" y="-158.75" width="5.29163" height="52.9162" fill="#fff" stroke="#917c6f"/>
   <g stroke="#373e48">
    <rect transform="rotate(90)" x="210.344" y="-158.75" width="2.64581" height="52.9163" fill="#6f7c91"/>
    <path d="m132.292 211.667h-26.4581v26.4581a26.4581 26.4581 0 0 0 26.4581-26.4581z" fill="none"/>
    <path d="m158.75 238.125v-26.4581h-26.4581a26.4581 26.4581 0 0 0 26.4581 26.4581z" fill="none"/>
   </g>
  </g>
 </g>
 <g fill="#a05a2c" stroke="#502d16">
  <path d="m84.6655 261.911c-0.01445-1.45034-1.20844-2.41435-2.64428-2.61947l-9.2604-1.32292c-0.730624-1e-5 -1.32292 2.96145-1.32292 6.61458 0 3.65312 0.592291 6.61457 1.32292 6.61457l9.2604-1.32291c1.43604-0.20515 2.63035-1.16893 2.6448-2.61948 0-2.58366-5.29e-4 -2.72126-5.29e-4 -5.34436z" stroke-linejoin="round" stroke-width=".529166"/>
  <g stroke-width=".529167">
   <path d="m87.974 257.969s0.73588 2.66815 0.73588 6.61458-0.73588 6.61458-0.73588 6.61458l-1.32289-1.32291s0.41296-2.2745 0.41296-5.29167-0.41298-5.29167-0.41298-5.29167z" stroke-linejoin="round"/>
   <path d="m87.013 262.722-2.34797 0.53824z"/>
   <path d="m86.732 259.806-2.11238 1.64827z"/>
   <path d="m87.013 266.445-2.34797-0.53824z"/>
   <path d="m86.732 269.361-2.11238-1.64827z"/>
  </g>
  <path d="m52.9185 267.255c0.01445 1.45034 1.20844 2.41435 2.64428 2.61947l9.2604 1.32292c0.730624 1e-5 1.32292-2.96145 1.32292-6.61458 0-3.65312-0.592291-6.61457-1.32292-6.61457l-9.2604 1.32291c-1.43604 0.20515-2.63035 1.16893-2.6448 2.61948 0 2.58366 5.29e-4 2.72126 5.29e-4 5.34436z" stroke-linejoin="round" stroke-width=".529166"/>
  <g stroke-width=".529167">
   <path d="m49.61 271.197s-0.73588-2.66815-0.73588-6.61458 0.73588-6.61458 0.73588-6.61458l1.32289 1.32291s-0.41296 2.2745-0.41296 5.29167 0.41298 5.29167 0.41298 5.29167z" stroke-linejoin="round"/>
   <path d="m50.571 266.444 2.34797-0.53824z"/>
   <path d="m50.852 269.36 2.11238-1.64827z"/>
   <path d="m50.571 262.721 2.34797 0.53824z"/>
   <path d="m50.852 259.805 2.11238 1.64827z"/>
  </g>
 </g>
 <g stroke-linejoin="round" stroke-width=".529167">
  <rect x="55.563" y="251.353" width="26.4583" height="26.4583" fill="#f4e3d7" stroke="#502d16"/>
  <rect transform="rotate(90)" x="209.021" y="-76.7289" width="5.29167" height="21.1667" fill="#fff" stroke="#917c6f"/>
  <rect transform="rotate(90)" x="210.344" y="-76.7289" width="2.64583" height="21.1667" fill="#5fbcd3" stroke="#216778"/>
  <rect transform="rotate(90)" x="211.667" y="-74.0839" width="1.9251e-12" height="15.875" fill="#5fbcd3" stroke="#216778"/>
  <rect transform="rotate(90)" x="209.021" y="-103.187" width="5.29167" height="21.1667" fill="#fff" stroke="#917c6f"/>
  <rect transform="rotate(90)" x="210.344" y="-103.187" width="2.64583" height="21.1667" fill="#5fbcd3" stroke="#216778"/>
  <rect transform="rotate(90)" x="211.667" y="-100.542" width="1.9251e-12" height="15.875" fill="#5fbcd3" stroke="#216778"/>
  <rect x="23.8125" y="55.5626" width="5.29167" height="153.458" fill="#333" stroke="#000"/>
  <rect transform="rotate(90)" x="209.021" y="-50.2708" width="5.29167" height="21.1667" fill="#fff" stroke="#917c6f"/>
  <rect transform="rotate(90)" x="210.344" y="-50.2708" width="2.64583" height="21.1667" fill="#5fbcd3" stroke="#216778"/>
  <rect transform="rotate(90)" x="211.667" y="-47.6258" width="1.9251e-12" height="15.875" fill="#5fbcd3" stroke="#216778"/>
 </g>
 <g fill="#333" stroke="#000" stroke-linejoin="round">
  <g stroke-width=".529167">
   <rect x="235.479" y="50.2709" width="5.29167" height="5.29167"/>
   <rect x="23.8125" y="50.2709" width="5.29167" height="5.29167"/>
   <rect x="134.938" y="50.2709" width="100.542" height="5.29167"/>
  </g>
  <g stroke-width=".529167">
   <path d="m240.49 34.0774c-1.16924 7.9e-4 -2.13302 0.89876-2.53369 1.88929-0.40067 0.99052-1.35253 1.37949-2.32027 1.38079-0.0527-6e-5 -0.10499-3e-3 -0.1571-6e-3v12.9294h5.29167v-16.1737c-0.0929-0.01-0.18591-0.0196-0.28061-0.0196z"/>
   <path d="m28.8236 34.0774c-1.16924 7.9e-4 -2.13302 0.89876-2.53369 1.88929-0.40067 0.99052-1.35253 1.37949-2.32027 1.38079-0.0527-6e-5 -0.10499-3e-3 -0.1571-6e-3v12.9294h5.29167v-16.1737c-0.0929-0.01-0.18591-0.0196-0.28061-0.0196z"/>
   <path d="m81.7402 34.0774c-1.16924 7.9e-4 -2.13302 0.89876-2.53369 1.88929-0.40067 0.99052-1.35253 1.37949-2.32027 1.38079-0.0527-6e-5 -0.10499-3e-3 -0.1571-6e-3v12.9294h5.29167v-16.1737c-0.0929-0.01-0.18591-0.0196-0.28061-0.0196z"/>
   <path d="m134.657 34.0774c-1.16924 7.9e-4 -2.13302 0.89876-2.53369 1.88929-0.40067 0.99052-1.35253 1.37949-2.32027 1.38079-0.0527-6e-5 -0.10499-3e-3 -0.1571-6e-3v12.9294h5.29167v-16.1737c-0.0929-0.01-0.18591-0.0196-0.28061-0.0196z"/>
  </g>
  <g stroke-width=".529167">
   <rect x="82.0208" y="50.2709" width="47.625" height="5.29167"/>
   <rect x="129.646" y="50.2709" width="5.29167" height="5.29167"/>
   <rect x="29.1042" y="50.2709" width="47.625" height="5.29167"/>
  </g>
 </g>
 <g stroke-linejoin="round">
  <g stroke-width=".529167">
   <rect transform="rotate(90)" x="50.2705" y="-76.7287" width="5.29167" height="26.4583" fill="#fff" stroke="#917c6f"/>
   <rect transform="rotate(90)" x="51.5934" y="-76.7287" width="2.64583" height="26.4583" fill="#6f7c91" stroke="#373e48"/>
   <path d="m76.7287 79.3746v-26.4583h-26.4583a26.4583 26.4583 0 0 0 26.4583 26.4583z" fill="none" stroke="#373e48"/>
   <rect transform="matrix(0,1,1,0,0,0)" x="50.2709" y="82.0208" width="5.29167" height="26.4583" fill="#fff" stroke="#917c6f"/>
   <rect transform="matrix(0,1,1,0,0,0)" x="51.5938" y="82.0208" width="2.64583" height="26.4583" fill="#6f7c91" stroke="#373e48"/>
   <path d="m82.0208 79.375v-26.4583h26.4583a26.4583 26.4583 0 0 1-26.4583 26.4583z" fill="none" stroke="#373e48"/>
  </g>
  <rect x="71.4375" y="74.0834" width="15.875" height="15.875" fill="#f0f0f0" stroke="#000" stroke-width=".529168"/>
  <ellipse cx="76.3224" cy="77.1363" rx="1.22116" ry="1.22115" stroke-width=".529168"/>
  <path d="m75.101 78.9681a1.22115 1.22115 0 0 0-1.22115 1.22115v3.66346h1.22115v4.88461h2.44231v-4.88461h1.22115v-3.66346a1.22115 1.22115 0 0 0-1.22115-1.22115z" stroke-width=".140009"/>
  <ellipse cx="82.4281" cy="77.1363" rx="1.22116" ry="1.22115" stroke-width=".529168"/>
  <path d="m82.4276 78.9681a1.83173 1.52644 0 0 0-1.81694 1.34447l-0.0014-2.45e-4 -0.0036 0.02671a1.83173 1.52644 0 0 0-9.77e-4 0.0053l-0.6194 4.72959h1.22141v3.66346h2.44231v-3.66346h1.22092l-0.623696-4.76155-0.0024 2.45e-4a1.83173 1.52644 0 0 0-1.81599-1.34447z" stroke-width=".140009"/>
  <g stroke-width=".529167">
   <path d="m75.4062 64.823h2.64583v5.29167h2.64584v-5.29167h2.64583l-3.96875-3.96875z" fill="#f0f0f0" stroke="#000"/>
   <rect transform="rotate(90)" x="50.2709" y="-198.437" width="5.29167" height="26.4583" fill="#fff" stroke="#917c6f"/>
   <rect transform="rotate(90)" x="51.5938" y="-198.437" width="2.64583" height="26.4583" fill="#6f7c91" stroke="#373e48"/>
  </g>
  <path d="m201.083 103.188v26.4583h13.2292v-26.4583z" fill="#784421" stroke="#502d16" stroke-width=".529"/>
 </g>
 <g stroke="#502d16">
  <g fill="#a05a2c">
   <path d="m219.578 166.688c-1.45034 0.0145-2.41435 1.20844-2.61947 2.64428l-1.32292 9.26041c-1e-5 0.73062 2.96145 1.32291 6.61458 1.32291 3.65312 0 6.61457-0.59229 6.61457-1.32291l-1.32291-9.26041c-0.20515-1.43604-1.16893-2.63034-2.61948-2.64479-2.58366 0-2.72126 5.3e-4 -5.34436 5.3e-4z" stroke-linejoin="round" stroke-width=".529166"/>
   <g stroke-width=".529167">
    <path d="m215.636 163.379s2.66815-0.73588 6.61458-0.73588 6.61458 0.73588 6.61458 0.73588l-1.32291 1.32289s-2.2745-0.41296-5.29167-0.41296-5.29167 0.41298-5.29167 0.41298z" stroke-linejoin="round"/>
    <path d="m220.389 164.34 0.53824 2.34797z"/>
    <path d="m217.473 164.621 1.64827 2.11238z"/>
    <path d="m224.112 164.34-0.53824 2.34797z"/>
    <path d="m227.028 164.621-1.64827 2.11238z"/>
   </g>
   <path d="m224.923 198.436c1.45034-0.0144 2.41435-1.20844 2.61947-2.64428l1.32292-9.26041c1e-5 -0.73062-2.96145-1.32291-6.61458-1.32291-3.65312 0-6.61457 0.59229-6.61457 1.32291l1.32291 9.26041c0.20515 1.43604 1.16893 2.63034 2.61948 2.64479 2.58366 0 2.72126-5.3e-4 5.34436-5.3e-4z" stroke-linejoin="round" stroke-width=".529166"/>
   <g stroke-width=".529167">
    <path d="m228.865 201.744s-2.66815 0.73588-6.61458 0.73588-6.61458-0.73588-6.61458-0.73588l1.32291-1.32289s2.2745 0.41296 5.29167 0.41296 5.29167-0.41298 5.29167-0.41298z" stroke-linejoin="round"/>
    <path d="m224.112 200.783-0.53824-2.34797z"/>
    <path d="m227.028 200.502-1.64827-2.11238z"/>
    <path d="m220.389 200.783 0.53824-2.34797z"/>
    <path d="m217.473 200.502 1.64827-2.11238z"/>
   </g>
  </g>
  <path d="m222.25 169.333a13.2292 13.2292 0 0 0-13.2292 13.2292 13.2292 13.2292 0 0 0 13.2292 13.2292 13.2292 13.2292 0 0 0 13.2292-13.2292 13.2292 13.2292 0 0 0-13.2292-13.2292z" fill="#f4e3d7" stroke-linejoin="round" stroke-width=".529166"/>
  <g fill="#a05a2c">
   <path d="m164.043 153.485c0.0144 1.45034 1.20844 2.41435 2.64428 2.61947l9.26041 1.32292c0.73062 1e-5 1.32291-2.96145 1.32291-6.61458 0-3.65312-0.59229-6.61457-1.32291-6.61457l-9.26041 1.32291c-1.43604 0.20515-2.63034 1.16893-2.64479 2.61948 0 2.58366 5.3e-4 2.72126 5.3e-4 5.34436z" stroke-linejoin="round" stroke-width=".529166"/>
   <g stroke-width=".529167">
    <path d="m160.734 157.427s-0.73588-2.66815-0.73588-6.61458 0.73588-6.61458 0.73588-6.61458l1.32289 1.32291s-0.41296 2.2745-0.41296 5.29167 0.41298 5.29167 0.41298 5.29167z" stroke-linejoin="round"/>
    <path d="m161.695 152.674 2.34797-0.53824z"/>
    <path d="m161.976 155.59 2.11238-1.64827z"/>
    <path d="m161.695 148.951 2.34797 0.53824z"/>
    <path d="m161.976 146.035 2.11238 1.64827z"/>
   </g>
   <path d="m195.791 148.14c-0.0145-1.45034-1.20844-2.41435-2.64428-2.61947l-9.26041-1.32292c-0.73062-1e-5 -1.32291 2.96145-1.32291 6.61458 0 3.65312 0.59229 6.61457 1.32291 6.61457l9.26041-1.32291c1.43604-0.20515 2.63034-1.16893 2.64479-2.61948 0-2.58366-5.3e-4 -2.72126-5.3e-4 -5.34436z" stroke-linejoin="round" stroke-width=".529166"/>
   <g stroke-width=".529167">
    <path d="m199.099 144.198s0.73588 2.66815 0.73588 6.61458-0.73588 6.61458-0.73588 6.61458l-1.32289-1.32291s0.41296-2.2745 0.41296-5.29167-0.41298-5.29167-0.41298-5.29167z" stroke-linejoin="round"/>
    <path d="m198.138 148.951-2.34797 0.53824z"/>
    <path d="m197.857 146.035-2.11238 1.64827z"/>
    <path d="m198.138 152.674-2.34797-0.53824z"/>
    <path d="m197.857 155.59-2.11238-1.64827z"/>
   </g>
  </g>
  <path d="m166.687 150.812a13.2292 13.2292 0 0 0 13.2292 13.2292 13.2292 13.2292 0 0 0 13.2292-13.2292 13.2292 13.2292 0 0 0-13.2292-13.2292 13.2292 13.2292 0 0 0-13.2292 13.2292z" fill="#f4e3d7" stroke-linejoin="round" stroke-width=".529166"/>
  <g fill="#a05a2c">
   <path d="m137.584 127.026c0.0145 1.45034 1.20844 2.41435 2.64428 2.61947l9.26041 1.32292c0.73062 1e-5 1.32291-2.96145 1.32291-6.61458 0-3.65312-0.59229-6.61457-1.32291-6.61457l-9.26041 1.32291c-1.43604 0.20515-2.63034 1.16893-2.64479 2.61948 0 2.58366 5.3e-4 2.72126 5.3e-4 5.34436z" stroke-linejoin="round" stroke-width=".529166"/>
   <g stroke-width=".529167">
    <path d="m134.276 130.968s-0.73588-2.66815-0.73588-6.61458 0.73588-6.61458 0.73588-6.61458l1.32289 1.32291s-0.41296 2.2745-0.41296 5.29167 0.41298 5.29167 0.41298 5.29167z" stroke-linejoin="round"/>
    <path d="m135.237 126.215 2.34797-0.53824z"/>
    <path d="m135.518 129.131 2.11238-1.64827z"/>
    <path d="m135.237 122.492 2.34797 0.53824z"/>
    <path d="m135.518 119.576 2.11238 1.64827z"/>
   </g>
   <path d="m169.332 121.682c-0.0144-1.45034-1.20844-2.41435-2.64428-2.61947l-9.26041-1.32292c-0.73062-1e-5 -1.32291 2.96145-1.32291 6.61458 0 3.65312 0.59229 6.61457 1.32291 6.61457l9.26041-1.32291c1.43604-0.20515 2.63034-1.16893 2.64479-2.61948 0-2.58366-5.3e-4 -2.72126-5.3e-4 -5.34436z" stroke-linejoin="round" stroke-width=".529166"/>
   <g stroke-width=".529167">
    <path d="m172.641 117.74s0.73588 2.66815 0.73588 6.61458-0.73588 6.61458-0.73588 6.61458l-1.32289-1.32291s0.41296-2.2745 0.41296-5.29167-0.41298-5.29167-0.41298-5.29167z" stroke-linejoin="round"/>
    <path d="m171.68 122.493-2.34797 0.53824z"/>
    <path d="m171.399 119.577-2.11238 1.64827z"/>
    <path d="m171.68 126.216-2.34797-0.53824z"/>
    <path d="m171.399 129.132-2.11238-1.64827z"/>
   </g>
  </g>
  <path d="m140.229 124.354a13.2292 13.2292 0 0 0 13.2292 13.2292 13.2292 13.2292 0 0 0 13.2292-13.2292 13.2292 13.2292 0 0 0-13.2292-13.2292 13.2292 13.2292 0 0 0-13.2292 13.2292z" fill="#f4e3d7" stroke-linejoin="round" stroke-width=".529166"/>
  <g fill="#a05a2c">
   <path d="m80.1579 164.771c-1.03576-1.01534-2.5617-0.85271-3.72204 0.0175l-7.48354 5.61265c-0.516636 0.51663 1.15862 3.02951 3.74177 5.61265 2.58315 2.58315 5.09602 4.2584 5.61265 3.74177l5.61265-7.48353c0.870371-1.1605 1.03338-2.6865 0.0179-3.72241-1.82693-1.82692-1.9246-1.92385-3.77941-3.77866z" stroke-linejoin="round" stroke-width=".529166"/>
   <g stroke-width=".529167">
    <path d="m79.7099 159.644s2.40701 1.36632 5.19756 4.15686c2.79055 2.79055 4.15687 5.19756 4.15687 5.19756l-1.87086-1e-5s-1.31631-1.90032-3.44977-4.03378-4.0338-3.44976-4.0338-3.44976z" stroke-linejoin="round"/>
    <path d="m82.3912 163.685-1.27967 2.04086z"/>
    <path d="m80.1306 161.821-0.328175 2.65918z"/>
    <path d="m85.0238 166.317-2.04086 1.27967z"/>
    <path d="m86.887 168.578-2.65918 0.32818z"/>
   </g>
   <path d="m52.1331 200.354c1.03576 1.01534 2.5617 0.85271 3.72204-0.0175l7.48354-5.61265c0.516636-0.51663-1.15862-3.02951-3.74177-5.61265-2.58315-2.58315-5.09602-4.2584-5.61265-3.74177l-5.61265 7.48353c-0.870371 1.1605-1.03338 2.6865-0.0179 3.72241 1.82693 1.82692 1.9246 1.92385 3.77941 3.77866z" stroke-linejoin="round" stroke-width=".529166"/>
   <g stroke-width=".529167">
    <path d="m52.5811 205.481s-2.40701-1.36632-5.19756-4.15686c-2.79055-2.79055-4.15687-5.19756-4.15687-5.19756l1.87086 1e-5s1.31631 1.90032 3.44977 4.03378 4.0338 3.44976 4.0338 3.44976z" stroke-linejoin="round"/>
    <path d="m49.8998 201.44 1.27967-2.04086z"/>
    <path d="m52.1604 203.304 0.328175-2.65918z"/>
    <path d="m47.2672 198.808 2.04086-1.27967z"/>
    <path d="m45.404 196.547 2.65918-0.32818z"/>
   </g>
   <path d="m48.3539 168.551c-1.01533 1.03577-0.852709 2.56171 0.01754 3.72204l5.61265 7.48354c0.516624 0.51663 3.0295-1.15862 5.61265-3.74177s4.2584-5.09603 3.74177-5.61266l-7.48354-5.61265c-1.16049-0.87037-2.68649-1.03338-3.7224-0.0179-1.82693 1.82693-1.92385 1.92459-3.77866 3.77941z" stroke-linejoin="round" stroke-width=".529166"/>
   <g stroke-width=".529167">
    <path d="m43.227 168.999s1.36632-2.40701 4.15687-5.19756c2.79055-2.79054 5.19756-4.15687 5.19756-4.15687l-1.4e-5 1.87087s-1.90032 1.31631-4.03378 3.44977-3.44975 4.03379-3.44975 4.03379z" stroke-linejoin="round"/>
    <path d="m47.2674 166.318 2.04086 1.27968z"/>
    <path d="m45.4042 168.578 2.65918 0.32818z"/>
    <path d="m49.8999 163.685 1.27967 2.04085z"/>
    <path d="m52.1606 161.822 0.328176 2.65918z"/>
   </g>
   <path d="m83.9371 196.576c1.01533-1.03576 0.852709-2.5617-0.01754-3.72203l-5.61265-7.48354c-0.516624-0.51664-3.0295 1.15862-5.61265 3.74177s-4.2584 5.09602-3.74177 5.61265l7.48354 5.61265c1.16049 0.87037 2.68649 1.03338 3.7224 0.0179 1.82693-1.82693 1.92385-1.9246 3.77866-3.77941z" stroke-linejoin="round" stroke-width=".529166"/>
   <g stroke-width=".529167">
    <path d="m89.064 196.128s-1.36632 2.40701-4.15687 5.19756-5.19756 4.15687-5.19756 4.15687l1.4e-5 -1.87087s1.90032-1.3163 4.03378-3.44977c2.13346-2.13346 3.44976-4.03379 3.44976-4.03379z" stroke-linejoin="round"/>
    <path d="m85.0236 198.81-2.04086-1.27968z"/>
    <path d="m86.8868 196.549-2.65918-0.32818z"/>
    <path d="m82.391 201.442-1.27967-2.04086z"/>
    <path d="m80.1304 203.305-0.328175-2.65918z"/>
   </g>
  </g>
 </g>
 <g stroke-linejoin="round" stroke-width=".529167">
  <circle transform="rotate(-45)" cx="-82.3197" cy="175.864" r="18.5208" fill="#f4e3d7" stroke="#502d16"/>
  <rect transform="rotate(90)" x="209.021" y="-209.021" width="5.29167" height="21.1667" fill="#fff" stroke="#917c6f"/>
  <rect transform="rotate(90)" x="210.344" y="-209.021" width="2.64583" height="21.1667" fill="#5fbcd3" stroke="#216778"/>
  <rect transform="rotate(90)" x="211.667" y="-206.376" width="1.9251e-12" height="15.875" fill="#5fbcd3" stroke="#216778"/>
  <rect transform="rotate(90)" x="209.02" y="-182.562" width="5.29167" height="21.1667" fill="#fff" stroke="#917c6f"/>
  <rect transform="rotate(90)" x="210.343" y="-182.562" width="2.64583" height="21.1667" fill="#5fbcd3" stroke="#216778"/>
  <rect transform="rotate(90)" x="211.666" y="-179.917" width="1.9251e-12" height="15.875" fill="#5fbcd3" stroke="#216778"/>
 </g>
 <g fill="#a05a2c" stroke="#502d16">
  <path d="m88.6345 111.098c-0.01445-1.45034-1.20844-2.41435-2.64428-2.61947l-9.2604-1.32292c-0.730624-1e-5 -1.32292 2.96145-1.32292 6.61458 0 3.65312 0.592291 6.61457 1.32292 6.61457l9.2604-1.32291c1.43604-0.20515 2.63035-1.16893 2.6448-2.61948 0-2.58366-5.29e-4 -2.72126-5.29e-4 -5.34436z" stroke-linejoin="round" stroke-width=".529166"/>
  <g stroke-width=".529167">
   <path d="m91.943 107.156s0.73588 2.66815 0.73588 6.61458-0.73588 6.61458-0.73588 6.61458l-1.32289-1.32291s0.41296-2.2745 0.41296-5.29167-0.41298-5.29167-0.41298-5.29167z" stroke-linejoin="round"/>
   <path d="m90.982 111.909-2.34797 0.53824z"/>
   <path d="m90.701 108.993-2.11238 1.64827z"/>
   <path d="m90.982 115.632-2.34797-0.53824z"/>
   <path d="m90.701 118.548-2.11238-1.64827z"/>
  </g>
  <path d="m43.6565 116.443c0.01445 1.45034 1.20844 2.41435 2.64428 2.61947l9.2604 1.32292c0.730624 1e-5 1.32292-2.96145 1.32292-6.61458 0-3.65312-0.592291-6.61457-1.32292-6.61457l-9.2604 1.32291c-1.43604 0.20515-2.63035 1.16893-2.6448 2.61948 0 2.58366 5.29e-4 2.72126 5.29e-4 5.34436z" stroke-linejoin="round" stroke-width=".529166"/>
  <g stroke-width=".529167">
   <path d="m40.348 120.385s-0.73588-2.66815-0.73588-6.61458 0.73588-6.61458 0.73588-6.61458l1.32289 1.32291s-0.41296 2.2745-0.41296 5.29167 0.41298 5.29167 0.41298 5.29167z" stroke-linejoin="round"/>
   <path d="m41.309 115.632 2.34797-0.53824z"/>
   <path d="m41.59 118.548 2.11238-1.64827z"/>
   <path d="m41.309 111.909 2.34797 0.53824z"/>
   <path d="m41.59 108.993 2.11238 1.64827z"/>
  </g>
  <path d="m63.4731 91.2822c-1.45035 0.01445-2.41436 1.20844-2.61948 2.64428l-1.32292 9.26041c-8e-6 0.73062 2.96145 1.32291 6.61458 1.32291s6.61458-0.59229 6.61458-1.32291l-1.32292-9.26041c-0.205147-1.43604-1.16893-2.63035-2.61948-2.6448-2.58367 0-2.72126 5.29e-4 -5.34436 5.29e-4z" stroke-linejoin="round" stroke-width=".529166"/>
  <g stroke-width=".529167">
   <path d="m59.531 87.9737s2.66815-0.73588 6.61458-0.73588 6.61458 0.73588 6.61458 0.73588l-1.32291 1.32289s-2.2745-0.41296-5.29167-0.41296-5.29167 0.41298-5.29167 0.41298z" stroke-linejoin="round"/>
   <path d="m64.284 88.9347 0.53824 2.34797z"/>
   <path d="m61.368 89.2157 1.64827 2.11238z"/>
   <path d="m68.007 88.9347-0.53824 2.34797z"/>
   <path d="m70.923 89.2157-1.64827 2.11238z"/>
  </g>
  <path d="m68.8189 136.26c1.45035-0.0145 2.41436-1.20844 2.61948-2.64428l1.32292-9.26041c8e-6 -0.73062-2.96145-1.32291-6.61458-1.32291s-6.61458 0.59229-6.61458 1.32291l1.32292 9.26041c0.205147 1.43604 1.16893 2.63034 2.61948 2.64479 2.58367 0 2.72126-5.3e-4 5.34436-5.3e-4z" stroke-linejoin="round" stroke-width=".529166"/>
  <g stroke-width=".529167">
   <path d="m72.761 139.568s-2.66815 0.73588-6.61458 0.73588-6.61458-0.73588-6.61458-0.73588l1.32291-1.32289s2.2745 0.41296 5.29167 0.41296 5.29167-0.41298 5.29167-0.41298z" stroke-linejoin="round"/>
   <path d="m68.008 138.607-0.53824-2.34797z"/>
   <path d="m70.924 138.326-1.64827-2.11238z"/>
   <path d="m64.285 138.607 0.53824-2.34797z"/>
   <path d="m61.369 138.326 1.64827-2.11238z"/>
  </g>
 </g>
 <g stroke-linejoin="round">
  <g stroke-width=".529167">
   <circle cx="66.146" cy="113.771" r="18.5208" fill="#f4e3d7" stroke="#502d16"/>
   <rect x="103.188" y="195.791" width="5.29167" height="5.29167" fill="#333" stroke="#000"/>
   <rect x="103.188" y="156.104" width="5.29167" height="5.29167" fill="#333" stroke="#000"/>
  </g>
  <path d="m111.125 166.688a2.64583 2.64583 0 0 0-2.64583 2.64583v18.5208a2.64583 2.64583 0 0 0 2.64583 2.64583h7.93749a2.64583 2.64583 0 0 0 2.64583-2.64583v-18.5208a2.64583 2.64583 0 0 0-2.64583-2.64583z" fill="#784421" stroke="#502d16" stroke-width=".528999"/>
  <g stroke-width=".529167">
   <g fill="#333" stroke="#000">
    <rect x="103.188" y="182.562" width="5.29167" height="5.29167"/>
    <rect x="103.188" y="169.333" width="5.29167" height="5.29167"/>
    <rect x="235.479" y="55.5625" width="5.29167" height="153.458"/>
   </g>
   <rect transform="rotate(90)" x="209.021" y="-235.479" width="5.29167" height="21.1667" fill="#fff" stroke="#917c6f"/>
   <rect transform="rotate(90)" x="210.344" y="-235.479" width="2.64583" height="21.1667" fill="#5fbcd3" stroke="#216778"/>
   <rect transform="rotate(90)" x="211.667" y="-232.834" width="1.9251e-12" height="15.875" fill="#5fbcd3" stroke="#216778"/>
   <g fill="#333" stroke="#000">
    <rect x="23.8125" y="209.02" width="5.29167" height="5.29167"/>
    <rect x="235.479" y="209.02" width="5.29167" height="5.29167"/>
    <rect x="76.7292" y="50.2709" width="5.29167" height="5.29167"/>
   </g>
  </g>
 </g>
</svg>
